<svg xmlns="http://www.w3.org/2000/svg" viewBox="0 0 18 18"><defs><style>.cls-2{fill:#dcdde0}</style></defs><g id="图层_2" data-name="图层 2"><g id="图层_1-2" data-name="图层 1"><path id="矩形_5259-2" data-name="矩形 5259-2" fill-opacity="0" d="M0 0h18v18H0z"/><path class="cls-2" d="M8.89 7A2 2 0 007 8.89zM10 7.29L7.29 10A2 2 0 1010 7.29z"/><path class="cls-2" d="M6.12 9.79a3 3 0 013.67-3.67l1.74-1.75A8.8 8.8 0 009 4a9 9 0 00-8 5 9.16 9.16 0 002.7 3.2zM12.56 4.76l-1.81 1.81a3 3 0 11-4.18 4.18l-2 2A8.71 8.71 0 009 14a9 9 0 008-5 9.12 9.12 0 00-4.44-4.24z"/><path id="矩形_5293" data-name="矩形 5293" class="cls-2" transform="rotate(-45 9.37 9.369)" d="M2.36 8.37h14v2h-14z"/></g></g></svg>