<?xml version="1.0" encoding="UTF-8"?>
<svg width="14px" height="16px" viewBox="0 0 14 16" version="1.1" xmlns="http://www.w3.org/2000/svg" xmlns:xlink="http://www.w3.org/1999/xlink">
    <title>导出选中</title>
    <g id="基础" stroke="none" stroke-width="1" fill="none" fill-rule="evenodd">
        <g id="算法管理-算法集详情" transform="translate(-383.000000, -84.000000)" fill="#4376FF" fill-rule="nonzero">
            <g id="路径-6-+-路径-6备份-+-路径-8-+-路径-7-蒙版" transform="translate(240.000000, 68.000000)">
                <g id="导出选中" transform="translate(150.000000, 24.000000) rotate(-270.000000) translate(-150.000000, -24.000000) translate(143.000000, 17.000000)">
                    <path d="M13.8819885,6.55598717 L13.8819885,13.2301541 C13.8819885,13.7213627 13.5192639,14.1200352 13.0723472,14.1200352 L0.927652751,14.1200352 C0.480308301,14.1200352 0.118011544,13.7217825 0.118011544,13.2301541 L0.118011544,6.55598717 C0.118011544,6.06430843 0.480354132,5.66610608 0.927652751,5.66610608 L2.95179396,5.66610608 L2.95179396,6.55598717 L1.73733979,6.55598717 C1.2904231,6.55598717 0.927698583,6.95423989 0.927698583,7.44586826 L0.927698583,12.3402394 C0.927698583,12.831448 1.2904231,13.2301205 1.73733979,13.2301205 L12.2627366,13.2301205 C12.710081,13.2301205 13.0723778,12.831448 13.0723778,12.3402394 L13.0723778,7.44586826 C13.0723778,6.95465967 12.7100352,6.55598717 12.2627366,6.55598717 L11.0482824,6.55598717 L11.0482824,5.66610608 L13.0724236,5.66610608 C13.5192792,5.66610608 13.8819885,6.06430843 13.8819885,6.55598717 Z M10.1224129,3.13389845 L7.30525201,0.0379444335 C7.29834676,0.02906191 7.29593297,0.01791258 7.28864579,0.0094498355 C7.13156651,-0.163196868 6.87692757,-0.163196868 6.72029132,0.0094498355 L3.87761762,3.13384808 C3.72053834,3.30649478 3.72053834,3.58636983 3.87761762,3.75901654 C4.03469691,3.93166324 4.28933584,3.93166324 4.44641513,3.75901654 L6.59523287,1.3968194 L6.59523287,8.33616912 C6.59523287,8.581807 6.77661804,8.78110127 7.00004583,8.78110127 C7.22353473,8.78110127 7.4048588,8.58179021 7.4048588,8.33616912 L7.4048588,1.39686978 L9.55405846,3.75906691 C9.71113775,3.93171361 9.96577668,3.93171361 10.1224129,3.75906691 C10.2794922,3.58600043 10.2794922,3.30654516 10.1224129,3.13389845 L10.1224129,3.13389845 Z" id="形状" transform="translate(7.000000, 7.000000) rotate(-90.000000) translate(-7.000000, -7.000000) "></path>
                </g>
            </g>
        </g>
    </g>
</svg>