<?xml version="1.0" encoding="UTF-8"?>
<svg width="47px" height="47px" viewBox="0 0 47 47" version="1.1" xmlns="http://www.w3.org/2000/svg" xmlns:xlink="http://www.w3.org/1999/xlink">
    <title>OA</title>
    <defs>
        <linearGradient x1="91.1752358%" y1="-9.60410315%" x2="36.4462019%" y2="100%" id="linearGradient-1">
            <stop stop-color="#B8B4FF" offset="0%"></stop>
            <stop stop-color="#7265E7" offset="100%"></stop>
        </linearGradient>
        <filter x="-37.5%" y="-37.5%" width="175.0%" height="175.0%" filterUnits="objectBoundingBox" id="filter-2">
            <feGaussianBlur stdDeviation="3.33333333" in="SourceGraphic"></feGaussianBlur>
        </filter>
    </defs>
    <g id="基础" stroke="none" stroke-width="1" fill="none" fill-rule="evenodd">
        <g id="驾驶舱" transform="translate(-259.000000, -699.000000)">
            <g id="编组-26" transform="translate(260.000000, 698.000000)">
                <g id="OA" transform="translate(0.000000, 2.000000)">
                    <rect id="矩形" fill="url(#linearGradient-1)" x="8.88888889" y="8.88888889" width="31.1111111" height="31.1111111" rx="3.78250591"></rect>
                    <rect id="矩形" stroke="#FFFFFF" stroke-width="0.588235294" fill="#F6F5FF" x="-0.294117647" y="-0.294117647" width="36.1437908" height="36.1437908" rx="3.78250591"></rect>
                    <rect id="矩形备份-12" fill="url(#linearGradient-1)" opacity="0.551139" filter="url(#filter-2)" x="9.29078014" y="9.29078014" width="26.6666667" height="26.6666667" rx="3.78250591"></rect>
                    <g id="文档" transform="translate(10.000000, 10.000000)" fill="#FFFFFF" fill-rule="nonzero">
                        <path d="M12.7000166,0.30000128 L12.7000166,0.30000128 C13.4594093,0.30000128 14.0750182,0.915610121 14.0750182,1.67500288 L14.0750182,11.3000141 C14.0750182,13.7301919 12.1051909,15.7000192 9.67501306,15.7000192 L1.70000378,15.7000192 L1.70000372,15.7000192 C0.940610961,15.7000192 0.32500212,15.0844104 0.32500212,14.3250176 C0.32500212,14.3250176 0.32500212,14.3250176 0.32500212,14.3250176 L0.32500212,1.67500288 L0.32500212,1.67500309 C0.32500212,0.915610329 0.940610961,0.30000128 1.70000372,0.30000128 L12.7000165,0.30000128 L12.7000166,0.30000128 Z M5.53983331,10.5665882 L2.74913006,10.5665882 L2.74913003,10.5665882 C2.39472165,10.5665882 2.10741679,10.8538931 2.10741679,11.2083015 C2.10741679,11.5627099 2.39472165,11.8500147 2.74913003,11.8500147 L5.53983328,11.8500147 L5.53983325,11.8500147 C5.89424163,11.8500147 6.1815465,11.5627099 6.1815465,11.2083015 C6.1815465,10.8538931 5.89424163,10.5665882 5.53983325,10.5665882 L5.53983331,10.5665882 Z M8.59536186,7.23000934 L2.74885506,7.23000934 L2.74885503,7.23000934 C2.39444665,7.23000934 2.10714179,7.51731421 2.10714179,7.87172259 C2.10714179,8.22613097 2.39444665,8.51343584 2.74885503,8.51343584 L8.59536184,8.51343584 L8.59536181,8.51343584 C8.94977019,8.51343584 9.23707505,8.22613097 9.23707505,7.87172259 C9.23707505,7.51731421 8.94977019,7.23000934 8.59536181,7.23000934 L8.59536186,7.23000934 Z M11.6508904,3.89343046 L2.74913006,3.89343046 L2.74913003,3.89343046 C2.39479728,3.89343046 2.10755429,4.18067345 2.10755429,4.53500621 C2.10755429,4.88933896 2.39479728,5.17658195 2.74913003,5.17658195 L11.6508904,5.17658195 L11.6508904,5.17658195 C12.0052231,5.17658195 12.2924661,4.88933896 12.2924661,4.53500621 C12.2924661,4.18067345 12.0052231,3.89343046 11.6508904,3.89343046 L11.6508904,3.89343046 Z" id="形状"></path>
                    </g>
                </g>
            </g>
        </g>
    </g>
</svg>