<?xml version="1.0" encoding="UTF-8"?>
<svg width="57px" height="57px" viewBox="0 0 57 57" version="1.1" xmlns="http://www.w3.org/2000/svg" xmlns:xlink="http://www.w3.org/1999/xlink">
    <title>我发起的</title>
    <defs>
        <linearGradient x1="0%" y1="0%" x2="100%" y2="100%" id="linearGradient-1">
            <stop stop-color="#FFF0E1" offset="0%"></stop>
            <stop stop-color="#FF7F02" offset="100%"></stop>
        </linearGradient>
        <linearGradient x1="0.773331926%" y1="0.773331926%" x2="100%" y2="100%" id="linearGradient-2">
            <stop stop-color="#9ED4FD" offset="0%"></stop>
            <stop stop-color="#2885EB" offset="100%"></stop>
        </linearGradient>
        <rect id="path-3" x="8.88888889" y="8.88888889" width="31.1111111" height="31.1111111" rx="3.78250591"></rect>
        <filter x="-56.3%" y="-56.3%" width="212.5%" height="212.5%" filterUnits="objectBoundingBox" id="filter-4">
            <feGaussianBlur stdDeviation="5" in="SourceGraphic"></feGaussianBlur>
        </filter>
    </defs>
    <g id="基础" stroke="none" stroke-width="1" fill="none" fill-rule="evenodd">
        <g id="驾驶舱" transform="translate(-254.000000, -810.000000)">
            <g id="编组-10备份-3-copy" transform="translate(260.000000, 814.000000)">
                <g id="我发起的" transform="translate(0.000000, 2.000000)">
                    <g id="矩形">
                        <use fill="url(#linearGradient-1)" xlink:href="#path-3"></use>
                        <use fill="url(#linearGradient-2)" xlink:href="#path-3"></use>
                    </g>
                    <rect id="矩形" stroke="#FFFFFF" stroke-width="0.833333333" fill="#ECF6FF" x="-0.416666667" y="-0.416666667" width="36.3888889" height="36.3888889" rx="3.78250591"></rect>
                    <rect id="矩形备份-12" fill="url(#linearGradient-2)" opacity="0.550082" filter="url(#filter-4)" x="9.29078014" y="9.29078014" width="26.6666667" height="26.6666667" rx="3.78250591"></rect>
                    <g id="发起" transform="translate(10.000006, 9.000000)" fill="#FFFFFF" fill-rule="nonzero">
                        <path d="M10,9 C11.6568542,9 13,10.3431458 13,12 C13,13.6568542 11.6568542,15 10,15 C8.34314575,15 7,13.6568542 7,12 C7,10.3431458 8.34314575,9 10,9 Z M12.0012796,0 C12.5136834,0.00130000151 12.9353747,0.387445947 12.993002,0.884424347 L12.9997135,1.00095439 L13.000057,9.35424015 C12.2671111,8.52378203 11.1947235,8 10,8 C7.790861,8 6,9.790861 6,12 C6,13.1888598 6.51865323,14.2565817 7.34203473,14.9892406 L1.00095429,14.988908 C0.492199568,14.988908 0.0712024158,14.6091695 0.00808877294,14.1162863 L0,14.0006569 L0,1.00095429 C0,0.48762925 0.386408765,0.0645544119 0.884221948,0.0067341545 L1.00095433,0 L12.0012796,0 Z M8.58578618,10.5857864 C8.41221983,10.7593528 8.39293468,11.0287772 8.52793073,11.2236453 L8.58578618,11.2928932 L9.293,12 L8.58578618,12.7071068 C8.41221983,12.8806731 8.39293468,13.1500975 8.52793073,13.3449657 L8.58578618,13.4142136 C8.75935254,13.5877799 9.02877694,13.6070651 9.22364508,13.472069 L9.29289297,13.4142136 L10,12.707 L10.7071065,13.4142136 C10.8806729,13.5877799 11.1500973,13.6070651 11.3449654,13.472069 L11.4142133,13.4142136 C11.5877797,13.2406472 11.6070648,12.9712228 11.4720688,12.7763547 L11.4142133,12.7071068 L10.707,12 L11.4142133,11.2928932 C11.5877797,11.1193269 11.6070648,10.8499025 11.4720688,10.6550343 L11.4142133,10.5857864 C11.240647,10.4122201 10.9712226,10.3929349 10.7763544,10.527931 L10.7071065,10.5857864 L10,11.293 L9.29289297,10.5857864 C9.09763082,10.3905243 8.78104833,10.3905243 8.58578618,10.5857864 Z M5.74912391,5.45951735 L2.25086984,5.45951735 C2.13060666,5.45951735 2.02986088,5.54308233 2.00353073,5.65531498 L1.99682111,5.71356612 L1.99682111,6.22166515 C1.99682111,6.34192833 2.08038609,6.44267411 2.19261872,6.46900427 L2.25086985,6.47571388 L5.74404579,6.47571388 C5.86430897,6.47571388 5.96505475,6.3921489 5.99138491,6.27991628 L5.99809452,6.22166515 L6.00317263,5.71356608 C6.00317263,5.57325905 5.88943141,5.45951735 5.74912391,5.45951735 Z M10.7513485,2.95967077 L2.25086984,2.95967077 C2.13060666,2.95967077 2.02986088,3.04323575 2.00353073,3.15546835 L1.99682111,3.21371946 L1.99682111,3.72181849 C1.99682111,3.84208167 2.08038609,3.94282745 2.19261872,3.96915761 L2.25086985,3.97586723 L10.7462704,3.97586723 C10.8665335,3.97586723 10.9672793,3.89230224 10.9936095,3.78006962 L11.0003191,3.72181849 L11.0053972,3.2137195 C11.0053972,3.07341246 10.891656,2.95967077 10.7513485,2.95967077 Z" id="Combined-Shape"></path>
                    </g>
                </g>
            </g>
        </g>
    </g>
</svg>