<?xml version="1.0" encoding="UTF-8"?>
<svg width="57px" height="57px" viewBox="0 0 57 57" version="1.1" xmlns="http://www.w3.org/2000/svg" xmlns:xlink="http://www.w3.org/1999/xlink">
    <title>我发起的</title>
    <defs>
        <linearGradient x1="0%" y1="0%" x2="100%" y2="100%" id="linearGradient-1">
            <stop stop-color="#FFF0E1" offset="0%"></stop>
            <stop stop-color="#FF7F02" offset="100%"></stop>
        </linearGradient>
        <filter x="-56.3%" y="-56.3%" width="212.5%" height="212.5%" filterUnits="objectBoundingBox" id="filter-2">
            <feGaussianBlur stdDeviation="5" in="SourceGraphic"></feGaussianBlur>
        </filter>
    </defs>
    <g id="基础" stroke="none" stroke-width="1" fill="none" fill-rule="evenodd">
        <g id="驾驶舱" transform="translate(-254.000000, -751.000000)">
            <g id="编组-10备份-3" transform="translate(260.000000, 756.000000)">
                <g id="我发起的" transform="translate(0.000000, 1.000000)">
                    <rect id="矩形" fill="url(#linearGradient-1)" x="8.88888889" y="8.88888889" width="31.1111111" height="31.1111111" rx="3.78250591"></rect>
                    <rect id="矩形" stroke="#FFFFFF" stroke-width="0.833333333" fill="#FFF2E6" x="-0.416666667" y="-0.416666667" width="36.3888889" height="36.3888889" rx="3.78250591"></rect>
                    <rect id="矩形备份-12" fill="url(#linearGradient-1)" opacity="0.550082" filter="url(#filter-2)" x="9.29078014" y="9.29078014" width="26.6666667" height="26.6666667" rx="3.78250591"></rect>
                    <g id="发起" transform="translate(10.000000, 9.000000)" fill="#FFFFFF" fill-rule="nonzero">
                        <path d="M15.8043934,8.23882209 L15.8043934,8.23882207 C15.2632459,8.48923799 14.6731062,8.61594439 14.0768602,8.60973344 C12.8828291,8.60973344 12.3848894,8.01779838 11.4093414,8.01779838 L11.4093417,8.01779838 C10.9538068,8.02377216 10.5013875,8.09390159 10.0654214,8.22611893 L10.0654214,8.22611893 C10.0168227,8.20073062 9.96274016,8.18764608 9.90791025,8.18801155 C9.56748486,8.18801155 9.56494423,8.40649461 9.56494423,8.40649461 L9.56494423,15.6570655 L9.56494423,15.6570656 C9.56494423,15.8464814 9.7184955,16.0000316 9.90791025,16.0000316 C10.0973261,16.0000316 10.2508763,15.8464804 10.2508763,15.6570656 L10.2508763,12.1283271 L10.2508762,12.1283271 C10.6282548,12.0285598 11.0164865,11.975658 11.4067995,11.970816 C12.3848897,11.970816 12.8802856,12.5627511 14.0743182,12.5627511 L14.0743184,12.5627511 C14.7164098,12.5728368 15.350984,12.4235764 15.9212581,12.1283271 L15.9212581,12.1283271 C15.9658508,12.1050443 15.9941236,12.0592225 15.9949324,12.008924 L15.9949324,8.35570102 L15.9949324,8.35570097 C15.9940414,8.28274651 15.9341779,8.22432753 15.8612235,8.22521847 C15.8415016,8.22545933 15.8220839,8.23011317 15.8043954,8.23883843 L15.8043934,8.23882209 Z" id="路径"></path>
                        <path d="M12.9997197,6.01080387 L12.9997197,1.00095429 L12.9997197,1.00095107 C12.9997197,0.449130111 12.5531052,0.00139990263 12.0012858,-9.90001157e-08 L1.00096054,-9.90001157e-08 L1.0009605,-9.90001157e-08 C0.448148915,-9.90001157e-08 6.20563489e-06,0.44814261 6.20563489e-06,1.00095419 C6.20563489e-06,1.00095419 6.20563489e-06,1.0009542 6.20563489e-06,1.0009542 L6.20563489e-06,14.0006568 L6.20563489e-06,14.0006568 C0.00695910435,14.5485012 0.453070795,14.9889079 1.0009605,14.9889079 L7.49954618,14.9889079 L7.49954614,14.9889079 C8.05235772,14.9889079 8.50050043,14.5407652 8.50050043,13.9879536 L8.50050043,7.51224298 L8.50050043,7.51224305 C8.50050039,7.23162866 8.72798351,7.00414402 9.00859946,7.00414402 C9.00859946,7.00414402 9.00859946,7.00414402 9.00859946,7.00414402 L12.0013061,7.00414402 L12.001306,7.00414402 C12.5501645,7.0027669 12.9955415,6.55965601 12.9997197,6.01081162 L12.9997197,6.01080387 Z M5.99810073,6.22166505 L5.99810073,6.22166505 C5.99810073,6.36197256 5.88435903,6.47571379 5.744052,6.47571379 L2.25087606,6.47571379 L2.25087605,6.47571379 C2.11056854,6.47571379 1.99682731,6.36197209 1.99682731,6.22166505 C1.99682731,6.22166505 1.99682731,6.22166505 1.99682731,6.22166505 L1.99682731,5.71356602 L1.99682731,5.71356599 C1.99682731,5.57325848 2.11056901,5.45951725 2.25087605,5.45951725 L5.74913012,5.45951725 L5.74913011,5.45951725 C5.88943761,5.45951725 6.00317884,5.57325895 6.00317884,5.71356599 L5.99810073,6.22166505 Z M11.0003253,3.72181839 L11.0003253,3.72181839 C11.0003253,3.8621259 10.8865836,3.97586713 10.7462766,3.97586713 C10.7462766,3.97586713 10.7462766,3.97586713 10.7462766,3.97586713 L2.25087606,3.97586713 L2.25087605,3.97586713 C2.11056854,3.97586713 1.99682731,3.86212543 1.99682731,3.72181839 C1.99682731,3.72181839 1.99682731,3.72181839 1.99682731,3.72181839 L1.99682731,3.21371936 L1.99682731,3.2137194 C1.99682731,3.0734119 2.11056901,2.95967067 2.25087605,2.95967067 L10.7513547,2.95967067 L10.7513547,2.95967067 C10.8916622,2.95967067 11.0054034,3.07341236 11.0054034,3.2137194 C11.0054034,3.2137194 11.0054034,3.2137194 11.0054034,3.2137194 L11.0003253,3.72181839 Z" id="形状"></path>
                    </g>
                </g>
            </g>
        </g>
    </g>
</svg>