<?xml version="1.0" encoding="UTF-8"?>
<svg width="24px" height="24px" viewBox="0 0 24 24" version="1.1" xmlns="http://www.w3.org/2000/svg" xmlns:xlink="http://www.w3.org/1999/xlink">
    <title>Group 2 Copy 2</title>
    <g id="基础" stroke="none" stroke-width="1" fill="none" fill-rule="evenodd">
        <g id="联邦项目-添加项目" transform="translate(-842.000000, -56.000000)">
            <g id="Group-8" transform="translate(722.000000, 52.000000)">
                <g id="Group-5" transform="translate(0.000000, 4.000000)">
                    <g id="Group-2-Copy-2" transform="translate(120.000000, 0.000000)">
                        <circle id="Oval-Copy" fill-opacity="0.1" fill="#4376FF" cx="12" cy="12" r="12"></circle>
                        <g id="map" transform="translate(6.400000, 6.400000)">
                            <rect id="矩形" x="0" y="0" width="11.2" height="11.2"></rect>
                            <path d="M5.6,0 C2.95272728,0 0.8,2.1 0.8,4.648 C0.8,8.11999999 5.16363636,11.004 5.36727272,11.116 C5.45454545,11.172 5.51272727,11.2 5.6,11.2 C5.68727273,11.2 5.77454545,11.172 5.83272728,11.116 C6.00727273,11.004 10.4,8.11999999 10.4,4.648 C10.4,2.1 8.24727272,0 5.6,0 Z M5.6,10.276 C4.69818182,9.632 1.67272727,7.27999999 1.67272727,4.67599999 C1.67272727,2.57599999 3.44727272,0.867999996 5.6,0.867999996 C7.75272728,0.867999996 9.52727273,2.57599999 9.52727273,4.67599999 C9.52727273,7.252 6.50181818,9.632 5.6,10.276 Z" id="形状" fill="#4376FF" fill-rule="nonzero"></path>
                            <path d="M5.6,3.2 C4.71384616,3.2 4,3.91384616 4,4.8 C4,5.68615384 4.71384616,6.4 5.6,6.4 C6.48615384,6.4 7.2,5.68615384 7.2,4.8 C7.2,3.91384616 6.48615384,3.2 5.6,3.2 Z M5.6,5.66153846 C5.1323077,5.66153846 4.73846154,5.26769231 4.73846154,4.8 C4.73846154,4.33230769 5.13230769,3.93846154 5.6,3.93846154 C6.06769231,3.93846154 6.46153846,4.33230769 6.46153846,4.8 C6.46153846,5.26769231 6.06769231,5.66153846 5.6,5.66153846 L5.6,5.66153846 Z" id="形状" fill="#4376FF" fill-rule="nonzero"></path>
                        </g>
                    </g>
                </g>
            </g>
        </g>
    </g>
</svg>