<?xml version="1.0" encoding="UTF-8"?>
<svg width="24px" height="24px" viewBox="0 0 24 24" version="1.1" xmlns="http://www.w3.org/2000/svg" xmlns:xlink="http://www.w3.org/1999/xlink">
    <title>Group 2 Copy</title>
    <defs>
        <circle id="path-1" cx="12" cy="12" r="12"></circle>
        <polygon id="path-2" points="0 0 10.4999665 0 10.4999665 11.2 0 11.2"></polygon>
    </defs>
    <g id="基础" stroke="none" stroke-width="1" fill="none" fill-rule="evenodd">
        <g id="联邦项目-添加项目" transform="translate(-802.000000, -56.000000)">
            <g id="Group-8" transform="translate(722.000000, 52.000000)">
                <g id="Group-5" transform="translate(0.000000, 4.000000)">
                    <g id="Group-2-Copy" transform="translate(80.000000, 0.000000)">
                        <g id="Oval-Copy">
                            <use fill-opacity="0" fill="#D8D8D8" xlink:href="#path-1"></use>
                            <use fill-opacity="0.1" fill="#4376FF" xlink:href="#path-1"></use>
                        </g>
                        <g id="删除-2-copy-2" transform="translate(6.400000, 6.400000)">
                            <mask id="mask-3" fill="white">
                                <use xlink:href="#path-2"></use>
                            </mask>
                            <g id="Clip-2"></g>
                            <path d="M3.15002509,9.1 C3.34346881,9.1 3.50001673,8.94346881 3.50001673,8.75002509 L3.50001673,4.90001673 C3.50001673,4.70657301 3.34346881,4.54997491 3.15002509,4.54997491 C2.95651447,4.54997491 2.79996655,4.70657301 2.79996655,4.90001673 L2.79996655,8.75002509 C2.79996655,8.94346881 2.95651447,9.1 3.15002509,9.1 Z M5.25000836,9.1 C5.44346881,9.1 5.6,8.94346881 5.6,8.75002509 L5.6,4.90001673 C5.6,4.70657301 5.44346881,4.54997491 5.25000836,4.54997491 C5.05656464,4.54997491 4.90003343,4.70657301 4.90003343,4.90001673 L4.90003343,8.75002509 C4.89996655,8.94346881 5.05656464,9.1 5.25000836,9.1 Z M7.35000836,9.1 C7.54345208,9.1 7.7,8.94346881 7.7,8.75002509 L7.7,4.90001673 C7.7,4.70657301 7.54345208,4.54997491 7.35000836,4.54997491 C7.15656464,4.54997491 7.00001673,4.70657301 7.00001673,4.90001673 L7.00001673,8.75002509 C7.00001673,8.94346881 7.15656464,9.1 7.35000836,9.1 Z M9.10001673,1.05002509 L7.65040977,1.05002509 C7.49387858,0.44771701 6.95042649,0 6.29998327,0 L4.19998327,0 C3.54954006,0 3.00608797,0.44771701 2.84955678,1.05002509 L1.40001673,1.05002509 C0.627914367,1.05002509 0,1.67819033 0,2.44997491 L0,2.80003345 L0.349991637,2.80003345 L0.349991637,3.15000836 L1.05002509,3.15000836 L1.05002509,9.79998327 C1.05002509,10.5717679 1.67787255,11.2 2.44997491,11.2 L8.04999164,11.2 C8.8221609,11.2 9.45000836,10.5717679 9.45000836,9.79998327 L9.45000836,3.15000836 L10.1499749,3.15000836 L10.1499749,2.79996655 L10.4999665,2.79996655 L10.4999665,2.44997491 C10.4999665,1.67819033 9.87211908,1.05002509 9.10001673,1.05002509 Z M4.19998327,0.69996655 L6.29998327,0.69996655 C6.55771868,0.69996655 6.78121759,0.841813012 6.90260913,1.05002509 L3.59742432,1.05002509 C3.71874895,0.841879913 3.94231477,0.69996655 4.19998327,0.69996655 Z M8.75002509,9.79998327 C8.75002509,10.1862352 8.43590901,10.4999665 8.04999164,10.4999665 L2.44997491,10.4999665 C2.06412444,10.4999665 1.70145509,10.1862352 1.70145509,9.79998327 L1.75000836,3.15000836 L8.75002509,3.15000836 L8.75002509,9.79998327 Z M0.699983275,2.44997491 C0.699983275,2.06378993 1.01409935,1.74999164 1.40001673,1.74999164 L9.10001673,1.74999164 C9.4859341,1.74999164 9.79998327,2.06378993 9.79998327,2.44997491 L0.699983275,2.44997491 Z" id="Fill-1" fill="#4376FF" mask="url(#mask-3)"></path>
                        </g>
                    </g>
                </g>
            </g>
        </g>
    </g>
</svg>