<?xml version="1.0" encoding="UTF-8"?>
<svg width="13px" height="16px" viewBox="0 0 13 16" version="1.1" xmlns="http://www.w3.org/2000/svg" xmlns:xlink="http://www.w3.org/1999/xlink">
    <title>编组</title>
    <g id="基础" stroke="none" stroke-width="1" fill="none" fill-rule="evenodd">
        <g id="登录页面" transform="translate(-667.000000, -447.000000)" fill="#FFFFFF" fill-rule="nonzero">
            <g id="编组-4" transform="translate(615.000000, 255.000000)">
                <g id="编组" transform="translate(52.000000, 192.000000)">
                    <path d="M13,16 L0,16 L0,5.69127517 L13,5.69127517 L13,16 Z M0.764705889,15.2070212 L12.2352941,15.2070212 L12.2352941,6.48425401 L0.764705889,6.48425401 L0.764705889,15.2070212 Z" id="形状"></path>
                    <path d="M3.40363637,6.1852349 L2.6,6.1852349 L2.6,4.252349 C2.6,1.8942282 4.5689091,0 7.02,0 C9.4710909,0 11.44,1.8942282 11.44,4.252349 L11.44,4.63892617 L10.6363636,4.63892617 L10.6363636,4.252349 C10.6363636,2.3194631 9.0290909,0.773154371 7.02,0.773154354 C5.0109091,0.773154337 3.40363637,2.31946308 3.40363637,4.252349 L3.40363637,6.1852349 Z" id="路径"></path>
                    <path d="M5.17291667,10.6416107 C5.17291667,11.1211619 5.43101936,11.5642854 5.84999999,11.8040609 C6.26898062,12.0438365 6.78518605,12.0438365 7.20416668,11.8040609 C7.62314731,11.5642854 7.88125,11.1211619 7.88125,10.6416107 C7.88125,10.1620596 7.62314731,9.7189361 7.20416668,9.47916053 C6.78518605,9.23938497 6.26898062,9.23938497 5.84999999,9.47916053 C5.43101936,9.7189361 5.17291667,10.1620596 5.17291667,10.6416107 L5.17291667,10.6416107 Z" id="路径"></path>
                    <polygon id="路径" points="5.95833333 10.8885906 7.04166667 10.8885906 7.04166667 13.4657718 5.95833333 13.4657718"></polygon>
                </g>
            </g>
        </g>
    </g>
</svg>