<?xml version="1.0" encoding="UTF-8"?>
<svg width="14px" height="14px" viewBox="0 0 14 14" version="1.1"
    xmlns="http://www.w3.org/2000/svg"
    xmlns:xlink="http://www.w3.org/1999/xlink">
    <g id="登录" stroke="none" stroke-width="1" fill="none" fill-rule="evenodd" fill-opacity="0.65">
        <g id="联邦管理-组织信息" transform="translate(-20.000000, -61.000000)" fill="#FFFFFF" fill-rule="nonzero">
            <g id="联邦驾驶舱" transform="translate(20.000000, 61.000000)">
                <path d="M6.52985075,7.41791043 L6.52985075,12.6540825 C6.52985075,13.377047 5.94514799,13.9631255 5.2238806,13.9631255 L1.30597015,13.9631255 C0.584702752,13.9631255 1.4610535e-13,13.377047 1.4610535e-13,12.6540825 L1.4610535e-13,8.72695345 C1.4610535e-13,8.00398896 0.584702752,7.41791043 1.30597015,7.41791043 L6.52985075,7.41791043 Z M12.6243781,7.41791043 C13.3456455,7.41791043 13.9303482,8.00398896 13.9303482,8.72695345 L13.9303482,12.6540825 C13.9303482,13.377047 13.3456455,13.9631255 12.6243781,13.9631255 L8.70646765,13.9631255 C7.98520025,13.9631255 7.4004975,13.377047 7.4004975,12.6540825 L7.4004975,7.41791043 L12.6243781,7.41791043 Z M5.2238806,-2.22044605e-15 C5.94514799,-2.22044605e-15 6.52985075,0.586078523 6.52985075,1.30904302 L6.52985075,6.5452151 L1.30597015,6.5452151 C0.584702752,6.5452151 1.4610535e-13,5.95913658 1.4610535e-13,5.23617208 L1.4610535e-13,1.30904302 C1.4610535e-13,0.586078523 0.584702752,-2.22044605e-15 1.30597015,-2.22044605e-15 L5.2238806,-2.22044605e-15 Z M10.6654229,-2.22044605e-15 C12.4685914,-2.22044605e-15 13.9303482,1.46519631 13.9303482,3.27260755 C13.9303482,5.08001879 12.4685914,6.5452151 10.6654229,6.5452151 C8.86225438,6.5452151 7.4004975,5.08001879 7.4004975,3.27260755 C7.4004975,1.46519631 8.86225438,-2.22044605e-15 10.6654229,-2.22044605e-15 Z" id="形状结合"></path>
            </g>
        </g>
    </g>
</svg>