<?xml version="1.0" encoding="UTF-8"?>
<svg width="14px" height="14px" viewBox="0 0 14 14" version="1.1"
    xmlns="http://www.w3.org/2000/svg"
    xmlns:xlink="http://www.w3.org/1999/xlink">
    <g id="基础" stroke="none" stroke-width="1" fill="none" fill-rule="evenodd" fill-opacity="0.65">
        <g id="联邦项目-拓扑图-放大-参数列表" transform="translate(-20.000000, -61.000000)" fill="#FFFFFF" fill-rule="nonzero">
            <g id="数据管理" transform="translate(20.000000, 61.000000)">
                <path d="M11.3806452,12.5982478 C11.7780645,12.5982478 12.1032258,12.9136421 12.1032258,13.2991239 C12.1032258,13.6846057 11.7780645,14 11.3806452,14 L2.61935485,14 C2.22193548,14 1.8967742,13.6846058 1.8967742,13.2991239 C1.8967742,12.913642 2.22193548,12.5982478 2.61935485,12.5982478 L11.3806452,12.5982478 Z M12.5187097,-1.77635684e-15 C13.3316129,-1.77635684e-15 14,0.595744675 14,1.33166458 L14,10.2853567 C14,11.0212766 13.3316129,11.6170213 12.5187097,11.6170213 L1.48129033,11.6170213 C0.668387096,11.6170213 0,11.0212766 0,10.2853567 L0,1.33166458 C0,0.595744675 0.668387096,-1.77635684e-15 1.48129033,-1.77635684e-15 L12.5187097,-1.77635684e-15 Z M4.59299517,4.9178744 L3.32487923,4.9178744 L3.32487923,8.9178744 L4.59299517,8.9178744 L4.59299517,4.9178744 Z M7.59299517,3 L6.32487923,3 L6.32487923,8.9178744 L7.59299517,8.9178744 L7.59299517,3 Z M10.5929952,3.9178744 L9.32487923,3.9178744 L9.32487923,8.9178744 L10.5929952,8.9178744 L10.5929952,3.9178744 Z" id="形状结合"></path>
            </g>
        </g>
    </g>
</svg>