<?xml version="1.0" encoding="UTF-8"?>
<svg width="16px" height="16px" viewBox="0 0 16 16" version="1.1"
    xmlns="http://www.w3.org/2000/svg"
    xmlns:xlink="http://www.w3.org/1999/xlink">
    <g id="登录" stroke="none" stroke-width="1" fill="none" fill-rule="evenodd" fill-opacity="0.65">
        <g id="联邦管理-组织信息" transform="translate(-21.000000, -140.000000)" fill="#FFFFFF" fill-rule="nonzero">
            <g id="ID组管理" transform="translate(21.000000, 140.000000)">
                <path d="M11.7674419,7.53488372 C14.1050192,7.53488372 16,9.42986455 16,11.7674419 C16,14.1050192 14.1050192,16 11.7674419,16 C9.42986455,16 7.53488372,14.1050192 7.53488372,11.7674419 C7.53488372,9.42986455 9.42986455,7.53488372 11.7674419,7.53488372 Z M12.528,9.616 L11.162,9.616 L11.0932128,9.62392321 C10.9606801,9.65501582 10.862,9.77398393 10.862,9.91600002 L10.862,9.91600002 L10.862,13.8 L10.8699232,13.8687872 C10.9010158,14.0013199 11.0199839,14.1 11.162,14.1 L11.162,14.1 L12.528,14.1 L12.7389792,14.0939685 C13.3565391,14.0577649 13.8357816,13.8584444 14.1789537,13.4923941 C14.54109,13.104845 14.722,12.5573956 14.722,11.858 C14.722,11.1524192 14.5410034,10.6047076 14.1784999,10.2231251 C13.7976514,9.81688339 13.2483609,9.616 12.528,9.616 L12.528,9.616 Z M9.771,9.716 C9.52191958,9.716 9.32,9.91791958 9.32,10.167 L9.32,13.549 C9.32,13.7980804 9.52191958,14 9.771,14 C10.0200804,14 10.222,13.7980804 10.222,13.549 L10.222,10.167 C10.222,9.91791958 10.0200804,9.716 9.771,9.716 Z M10.9835489,0 C11.6990453,0 12.2790698,0.564593421 12.2790698,1.2610547 L12.2796961,6.1625343 C12.1109818,6.14731173 11.94012,6.13953488 11.7674419,6.13953488 C8.65923466,6.13953488 6.13953488,8.65923466 6.13953488,11.7674419 C6.13953488,12.354013 6.22927161,12.919625 6.39576558,13.4512983 L1.29552082,13.4512501 C0.58002443,13.4512501 0,12.8866567 0,12.1901954 L0,1.2610547 C0,0.564593421 0.58002443,0 1.29552082,0 L10.9835489,0 Z M12.396,10.416 C12.908235,10.416 13.2718626,10.529284 13.4952893,10.7527107 C13.7129524,10.9703738 13.826,11.3406046 13.826,11.858 C13.826,12.3625027 13.7135012,12.7281237 13.4935862,12.9590345 C13.2694353,13.1831433 12.9033783,13.3 12.396,13.3 L12.396,13.3 L11.864,13.3 L11.8250755,13.2921415 C11.789184,13.2769607 11.764,13.2414213 11.764,13.2 L11.764,13.2 L11.764,10.516 L11.7718585,10.4770755 C11.7870393,10.441184 11.8225787,10.416 11.864,10.416 L11.864,10.416 Z M5.42325581,6.3052735 L2.55813953,6.3052735 L2.55813953,7.5663282 L5.42325581,7.5663282 L5.42325581,6.3052735 Z M7.6744186,3.7831641 L2.55813953,3.7831641 L2.55813953,5.0442188 L7.6744186,5.0442188 L7.6744186,3.7831641 Z" id="形状"></path>
            </g>
        </g>
    </g>
</svg>