<?xml version="1.0" encoding="UTF-8"?>
<svg width="14px" height="15px" viewBox="0 0 14 15" version="1.1"
    xmlns="http://www.w3.org/2000/svg"
    xmlns:xlink="http://www.w3.org/1999/xlink">
    <g id="基础" stroke="none" stroke-width="1" fill="none" fill-rule="evenodd" fill-opacity="0.65">
        <g id="联邦项目-拓扑图-放大-参数列表" transform="translate(-22.000000, -101.000000)" fill="#FFFFFF" fill-rule="nonzero">
            <g id="算法管理" transform="translate(22.000000, 101.000000)">
                <path d="M12.5187097,0 C13.3316129,0 14,0.595744675 14,1.33166458 L14,10.2853567 C14,11.0212766 13.3316129,11.6170213 12.5187097,11.6170213 L1.48129033,11.6170213 C0.668387096,11.6170213 0,11.0212766 0,10.2853567 L0,1.33166458 C0,0.595744675 0.668387096,0 1.48129033,0 L12.5187097,0 Z M4.8,5 L3.5,5 L3.5,9 L4.8,9 L4.8,5 Z M7.5,3 L6.2,3 L6.2,9 L7.5,9 L7.5,3 Z M10.3,4 L9,4 L9,9 L10.3,9 L10.3,4 Z M8.47813057,10.6878182 L11.5130579,13.7227455 C11.6507247,13.8604123 11.5403438,14.1960662 11.267767,14.468643 C10.9951901,14.7412199 10.6595362,14.8516008 10.5218694,14.713934 L7.4869421,11.6790067 C7.34927529,11.5413399 7.45965622,11.205686 7.73223305,10.9331091 C8.00480989,10.6605323 8.34046376,10.5501514 8.47813057,10.6878182 Z M5.52186943,10.6878182 C5.65953624,10.5501514 5.99519011,10.6605323 6.26776695,10.9331091 C6.54034378,11.205686 6.65072471,11.5413399 6.5130579,11.6790067 L6.5130579,11.6790067 L3.47813057,14.713934 C3.34046376,14.8516008 3.00480987,14.7412199 2.73223304,14.468643 C2.45965622,14.1960662 2.34927529,13.8604123 2.4869421,13.7227455 L2.4869421,13.7227455 Z" id="形状"></path>
            </g>
        </g>
    </g>
</svg>