<?xml version="1.0" encoding="UTF-8"?>
<svg width="12px" height="14px" viewBox="0 0 12 14" version="1.1"
    xmlns="http://www.w3.org/2000/svg"
    xmlns:xlink="http://www.w3.org/1999/xlink">
    <g id="基础" stroke="none" stroke-width="1" fill="none" fill-rule="evenodd">
        <g id="联邦项目-拓扑图-放大-参数列表" transform="translate(-22.000000, -141.000000)" fill="#FFFFFF" fill-rule="nonzero">
            <g id="消息中心" transform="translate(22.000000, 141.000000)">
                <path d="M10.7339228,4.18332036e-13 C11.4331579,4.18332036e-13 12,0.551761752 12,1.23239437 L12,11.9131455 C12,12.5937781 11.4331579,13.1455399 10.7339228,13.1455399 L1.26607717,13.1455399 C0.566842057,13.1455399 0,12.5937781 0,11.9131455 L0,1.23239437 C0,0.551761752 0.566842057,4.18332036e-13 1.26607717,4.18332036e-13 L10.7339228,4.18332036e-13 Z M5.92857143,6.16197183 L2.5,6.16197183 L2.5,7.3943662 L5.92857143,7.3943662 L5.92857143,6.16197183 Z M8.5,3.6971831 L2.5,3.6971831 L2.5,4.92957746 L8.5,4.92957746 L8.5,3.6971831 Z" id="形状"></path>
            </g>
        </g>
    </g>
</svg>