<?xml version="1.0" encoding="UTF-8"?>
<svg width="14px" height="14px" viewBox="0 0 14 14" version="1.1"
    xmlns="http://www.w3.org/2000/svg"
    xmlns:xlink="http://www.w3.org/1999/xlink">
    <g id="基础" stroke="none" stroke-width="1" fill="none" fill-rule="evenodd" fill-opacity="0.65">
        <g id="联邦项目-拓扑图-放大-参数列表" transform="translate(-21.000000, -181.000000)" fill="#FFFFFF" fill-rule="nonzero">
            <g id="模型管理" transform="translate(21.000000, 181.000000)">
                <path d="M0.124067912,8.82245256 L2.53404357,9.97932605 L6.99036961,12.1376594 L11.2878757,10.0555426 L13.8579487,8.82458152 C14.1577211,9.45816144 13.8909524,10.2149561 13.2601385,10.5205061 L7.54730391,13.2872944 C7.1955669,13.4577015 6.78517231,13.4577015 6.4334353,13.2872944 L0.720600759,10.5205061 C0.0890618515,10.2144574 -0.177304111,9.45623651 0.124067912,8.82245256 Z M13.8524134,6.14976401 C14.0004367,6.45427418 14.0211898,6.80554062 13.9101025,7.12578502 C13.7990152,7.44602942 13.5651975,7.70898964 13.2601385,7.85675913 L7.54687813,10.6235475 C7.19514112,10.7939546 6.78474653,10.7939546 6.43300952,10.6235475 L0.720600759,7.85675913 C0.111290793,7.56134847 -0.161624453,6.84179369 0.0985204666,6.21661315 L6.42577107,9.20098054 L6.99036961,9.4743382 L12.7032042,6.70754988 L12.7002236,6.70627251 L13.8524134,6.14976401 Z M7.54730391,0.127805355 L13.2597127,2.89374211 C13.7003938,3.10717369 13.9802913,3.5537315 13.9802913,4.04337714 C13.9802913,4.53302279 13.7003938,4.97958059 13.2597127,5.19301218 L7.54730391,7.9598005 C7.1955669,8.13020764 6.78517231,8.13020764 6.4334353,7.9598005 L0.720600759,5.19301218 C0.279919681,4.97958059 2.21564303e-05,4.53302279 2.21564303e-05,4.04337714 C2.21564303e-05,3.5537315 0.279919681,3.10717369 0.720600759,2.89374211 L6.4334353,0.127805355 C6.78517231,-0.0426017849 7.1955669,-0.0426017849 7.54730391,0.127805355 Z" id="形状结合"></path>
            </g>
        </g>
    </g>
</svg>