<?xml version="1.0" encoding="UTF-8"?>
<svg width="14px" height="14px" viewBox="0 0 14 14" version="1.1"
    xmlns="http://www.w3.org/2000/svg"
    xmlns:xlink="http://www.w3.org/1999/xlink">
    <g id="登录" stroke="none" stroke-width="1" fill="none" fill-rule="evenodd">
        <g id="联邦管理-组织信息" transform="translate(-20.000000, -101.000000)" fill="#FFFFFF" fill-rule="nonzero">
            <g id="编组-9备份-9" transform="translate(20.000000, 100.000000)">
                <g id="联邦管理" transform="translate(0.000000, 1.000000)">
                    <path d="M13,8 C13.5522847,8 14,8.44771525 14,9 L14,12.5 C14,13.0522847 13.5522847,13.5 13,13.5 L9.5,13.5 C8.94771525,13.5 8.5,13.0522847 8.5,12.5 L8.5,9 C8.5,8.44771525 8.94771525,8 9.5,8 L13,8 Z M4.5,8 C5.05228475,8 5.5,8.44771525 5.5,9 L5.5,12.5 C5.5,13.0522847 5.05228475,13.5 4.5,13.5 L1,13.5 C0.44771525,13.5 6.76353751e-17,13.0522847 0,12.5 L0,9 C-6.76353751e-17,8.44771525 0.44771525,8 1,8 L4.5,8 Z M8.75,0 C9.30228475,-1.01453063e-16 9.75,0.44771525 9.75,1 L9.75,4.5 C9.75,5.05228475 9.30228475,5.5 8.75,5.5 L7.52,5.5 L7.52,6.5192 L11.142625,6.5192 C11.4187674,6.5192 11.642625,6.74305763 11.642625,7.0192 L11.642625,7.0192 L11.642625,7.99571536 L10.83,7.99658203 L10.83,7.24 L3.21,7.24 L3.21,7.99658203 L2.4,7.99658203 L2.4,7.01833333 C2.4,6.74219096 2.62385763,6.51833333 2.9,6.51833333 L2.9,6.51833333 L6.707625,6.51833333 L6.707625,5.5 L5.25,5.5 C4.69771525,5.5 4.25,5.05228475 4.25,4.5 L4.25,1 C4.25,0.44771525 4.69771525,1.01453063e-16 5.25,0 L8.75,0 Z" id="形状结合"></path>
                </g>
            </g>
        </g>
    </g>
</svg>