<?xml version="1.0" encoding="UTF-8"?>
<svg width="12px" height="14px" viewBox="0 0 12 14" version="1.1"
    xmlns="http://www.w3.org/2000/svg"
    xmlns:xlink="http://www.w3.org/1999/xlink">
    <g id="基础" stroke="none" stroke-width="1" fill="none" fill-rule="evenodd" fill-opacity="0.65">
        <g id="联邦项目-拓扑图-放大-参数列表" transform="translate(-21.000000, -221.000000)" fill="#FFFFFF" fill-rule="nonzero">
            <g id="联邦项目" transform="translate(21.000000, 221.000000)">
                <path d="M7.699,0 L7.7,4.4 L12,4.399 L12,12.6875 C12,13.3670691 11.501799,13.9260106 10.8633719,13.9932237 L10.7339228,14 L1.26607717,14 C0.610544251,14 0.0713724175,13.4835316 0.0065366137,12.8216955 L0,12.6875 L0,1.3125 C0,0.632930875 0.498201026,0.0739894062 1.13662813,0.00677628955 L1.26607717,0 L7.699,0 Z M8.5,9.21596241 L2.5,9.21596241 L2.5,10.4483568 L8.5,10.4483568 L8.5,9.21596241 Z M8.5,6.75117367 L2.5,6.75117367 L2.5,7.98356804 L8.5,7.98356804 L8.5,6.75117367 Z M8.57175141,0 L12,3.5 L8.57175141,3.5 L8.57175141,0 Z" id="形状结合"></path>
            </g>
        </g>
    </g>
</svg>