<?xml version="1.0" encoding="UTF-8"?>
<svg width="14px" height="15px" viewBox="0 0 14 15" version="1.1"
    xmlns="http://www.w3.org/2000/svg"
    xmlns:xlink="http://www.w3.org/1999/xlink">
    <g id="登录" stroke="none" stroke-width="1" fill="none" fill-rule="evenodd" fill-opacity="0.65">
        <g id="联邦管理-组织信息" transform="translate(-20.000000, -181.000000)" fill="#FFFFFF" fill-rule="nonzero">
            <g id="编组-9备份-11" transform="translate(20.000000, 180.000000)">
                <g id="网络代理" transform="translate(0.000000, 1.000000)">
                    <path d="M13.9492754,13.4070115 L13.9492754,14.6751275 L8.03140098,14.6751275 L8.03140098,13.4070115 L13.9492754,13.4070115 Z M1.02775668e-08,3.96504291 L5.95169084,6.59384726 L5.91956524,14.0436057 C5.90393567,14.0372927 5.8884334,14.030669 5.87306765,14.0237386 L0.75326089,11.7504294 C0.295160847,11.5469125 -6.3600978e-05,11.0926446 1.02775668e-08,10.5913714 L1.02775668e-08,3.96504291 Z M13.9492754,11.2934849 L13.9492754,12.5616009 L8.03140098,12.5616009 L8.03140098,11.2934849 L13.9492754,11.2934849 Z M13.9492754,9.17995839 L13.9492754,10.4480743 L8.03140098,10.4480743 L8.03140098,9.17995839 L13.9492754,9.17995839 Z M12.775,4.03563471 L12.775,8.33454775 L7.21219808,8.33454775 L7.21938408,6.62808639 L12.775,4.03563471 L12.775,4.03563471 Z M6.90235509,0.108702335 L12.0213165,2.38243422 C12.2161836,2.4690888 12.3818841,2.60055016 12.5074276,2.7620236 L6.62252417,5.51848494 L0.306038661,2.71510331 C0.428557457,2.57237706 0.581331293,2.45873528 0.75326089,2.38243422 L5.87306765,0.109125053 C6.20073754,-0.0363750177 6.57468519,-0.0363750177 6.90235509,0.109125053 L6.90235509,0.108702335 Z" id="形状"></path>
                </g>
            </g>
        </g>
    </g>
</svg>