<?xml version="1.0" encoding="UTF-8"?>
<svg width="16px" height="16px" viewBox="0 0 16 16" version="1.1"
    xmlns="http://www.w3.org/2000/svg"
    xmlns:xlink="http://www.w3.org/1999/xlink">
    <g id="登录" stroke="none" stroke-width="1" fill="none" fill-rule="evenodd" fill-opacity="0.65">
        <g id="联邦管理-组织信息" transform="translate(-20.000000, -260.000000)" fill="#FFFFFF" fill-rule="nonzero">
            <g id="用户管理" transform="translate(20.000000, 260.000000)">
                <path d="M11.7674419,7.53488372 C14.1050192,7.53488372 16,9.42986455 16,11.7674419 C16,14.1050192 14.1050192,16 11.7674419,16 C9.42986455,16 7.53488372,14.1050192 7.53488372,11.7674419 C7.53488372,9.42986455 9.42986455,7.53488372 11.7674419,7.53488372 Z M11.8,9.2 C10.9715729,9.2 10.3,9.87157288 10.3,10.7 C10.3,11.1779387 10.5235265,11.60367 10.8727743,11.8775918 C9.95113855,12.2458854 9.3,13.1469019 9.3,14.2 L9.3,14.2 L14.3,14.2 L14.2933185,14.0158155 C14.2224631,13.042746 13.5947083,12.2242661 12.7282585,11.878356 C13.0764735,11.60367 13.3,11.1779387 13.3,10.7 C13.3,9.87157288 12.6284271,9.2 11.8,9.2 Z M10.9835489,0 C11.6990453,0 12.2790698,0.564593421 12.2790698,1.2610547 L12.2796961,6.1625343 C12.1109818,6.14731173 11.94012,6.13953488 11.7674419,6.13953488 C8.65923466,6.13953488 6.13953488,8.65923466 6.13953488,11.7674419 C6.13953488,12.354013 6.22927161,12.919625 6.39576558,13.4512983 L1.29552082,13.4512501 C0.58002443,13.4512501 0,12.8866567 0,12.1901954 L0,1.2610547 C0,0.564593421 0.58002443,0 1.29552082,0 L10.9835489,0 Z M5.62790698,6.3052735 L2.55813953,6.3052735 L2.55813953,7.5663282 L5.62790698,7.5663282 L5.62790698,6.3052735 Z M7.6744186,3.7831641 L2.55813953,3.7831641 L2.55813953,5.0442188 L7.6744186,5.0442188 L7.6744186,3.7831641 Z" id="形状"></path>
            </g>
        </g>
    </g>
</svg>