<?xml version="1.0" encoding="UTF-8"?>
<svg width="14px" height="14px" viewBox="0 0 14 14" version="1.1"
    xmlns="http://www.w3.org/2000/svg"
    xmlns:xlink="http://www.w3.org/1999/xlink">
    <g id="登录" stroke="none" stroke-width="1" fill="none" fill-rule="evenodd" fill-opacity="0.65">
        <g id="联邦管理-组织信息" transform="translate(-20.000000, -221.000000)" fill="#FFFFFF" fill-rule="nonzero">
            <g id="编组-9备份-12" transform="translate(20.000000, 220.000000)">
                <g id="证书管理" transform="translate(0.000000, 1.000000)">
                    <path d="M12.7347418,2.46478873 C13.4153744,2.46478873 13.9671362,3.01655048 13.9671362,3.6971831 L13.9671362,11.9131455 C13.9671362,12.5937781 13.4153744,13.1455399 12.7347418,13.1455399 L11.1724765,13.1459507 C11.3686977,12.8069963 11.4808276,12.4259517 11.4994718,12.0347418 L11.5023474,11.9131455 L11.5023474,2.46478873 L12.7347418,2.46478873 Z M9.44835681,0 C10.1289894,0 10.6807512,0.551761752 10.6807512,1.23239437 L10.6807512,11.9131455 C10.6807512,12.5937781 10.1289894,13.1455399 9.44835681,13.1455399 L1.23239437,13.1455399 C0.551761752,13.1455399 0,12.5937781 0,11.9131455 L0,1.23239437 C0,0.551761752 0.551761752,0 1.23239437,0 L9.44835681,0 Z M5.75117372,6.16197183 L2.46478873,6.16197183 L2.46478873,7.3943662 L5.75117372,7.3943662 L5.75117372,6.16197183 Z M8.21596245,3.6971831 L2.46478873,3.6971831 L2.46478873,4.92957746 L8.21596245,4.92957746 L8.21596245,3.6971831 Z" id="形状"></path>
                </g>
            </g>
        </g>
    </g>
</svg>