<?xml version="1.0" encoding="UTF-8"?>
<svg width="14px" height="14px" viewBox="0 0 14 14" version="1.1" xmlns="http://www.w3.org/2000/svg" xmlns:xlink="http://www.w3.org/1999/xlink">
    <title>形状结合</title>
    <g id="基础" stroke="none" stroke-width="1" fill="none" fill-rule="evenodd">
        <g id="联邦管理平台-顶部菜单" transform="translate(-473.000000, -133.000000)" fill="#4376FF">
            <path d="M480,133 C480.276142,133 480.5,133.223858 480.5,133.5 L480.5,139.499 L486.5,139.5 C486.776142,139.5 487,139.723858 487,140 C487,140.276142 486.776142,140.5 486.5,140.5 L480.5,140.499 L480.5,146.5 C480.5,146.776142 480.276142,147 480,147 C479.723858,147 479.5,146.776142 479.5,146.5 L479.5,140.499 L473.5,140.5 C473.223858,140.5 473,140.276142 473,140 C473,139.723858 473.223858,139.5 473.5,139.5 L479.5,139.499 L479.5,133.5 C479.5,133.223858 479.723858,133 480,133 Z" id="形状结合"></path>
        </g>
    </g>
</svg>