<?xml version="1.0" encoding="UTF-8"?>
<svg width="24px" height="24px" viewBox="0 0 24 24" version="1.1" xmlns="http://www.w3.org/2000/svg" xmlns:xlink="http://www.w3.org/1999/xlink">
    <title>全屏</title>
    <g id="基础" stroke="none" stroke-width="1" fill="none" fill-rule="evenodd">
        <g id="联邦项目-添加项目" transform="translate(-1074.000000, -56.000000)" fill="#4376FF">
            <g id="Group-8" transform="translate(722.000000, 52.000000)">
                <g id="全屏" transform="translate(352.000000, 4.000000)">
                    <circle id="椭圆形" fill-opacity="0.1" cx="12" cy="12" r="12"></circle>
                    <path d="M6.78261879,6.7826087 L9.26138047,6.7826087 C9.47588712,6.7826087 9.65217094,6.60733461 9.65217094,6.39129752 C9.65217094,6.17373097 9.47717077,6 9.26138047,6 L6.39080413,6 C6.2835508,6 6.1859795,6.04380828 6.11516008,6.11464169 C6.04331646,6.18547508 6,6.28304683 6,6.39080591 L6,9.26138166 C6,9.47588929 6.17527329,9.65217391 6.39129574,9.65217391 C6.6088613,9.65217391 6.78260513,9.47715929 6.78260513,9.26138166 L6.78260512,6.7826087 L6.78261879,6.7826087 Z M17.2173812,6.7826087 L14.7386195,6.7826087 C14.5238534,6.7826087 14.3478291,6.60733461 14.3478291,6.39129752 C14.3478291,6.17373097 14.5228429,6 14.7386195,6 L17.6091959,6 C17.7164492,6 17.8140205,6.04380828 17.8848399,6.11464169 C17.9566972,6.18547508 18,6.28304683 18,6.39080591 L18,9.26138166 C18,9.47588929 17.8247267,9.65217391 17.6087043,9.65217391 C17.3911387,9.65217391 17.2173949,9.47715929 17.2173949,9.26138166 L17.2173949,6.7826087 L17.2173812,6.7826087 Z M6.78261879,17.217405 L9.26138047,17.217405 C9.47588712,17.217405 9.65217094,17.3926654 9.65217094,17.6087025 C9.65217094,17.826269 9.47717077,18 9.26138047,18 L6.39080413,18 C6.2835508,18 6.1859795,17.9561781 6.11516008,17.8853583 C6.04331646,17.8145386 6,17.7169532 6,17.6091941 L6,14.7386456 C6,14.5241244 6.17527329,14.3478261 6.39129574,14.3478261 C6.6088613,14.3478261 6.78260513,14.5228407 6.78260513,14.7386456 L6.78260512,17.217405 L6.78261879,17.217405 Z M17.2173812,17.217405 L14.7386195,17.217405 C14.5238534,17.217405 14.3478291,17.3926654 14.3478291,17.6087025 C14.3478291,17.826269 14.5228429,18 14.7386195,18 L17.6091959,18 C17.7164492,18 17.8140205,17.9561781 17.8848399,17.8853583 C17.9566972,17.8145386 18,17.7169532 18,17.6091941 L18,14.7386456 C18,14.5241244 17.8247267,14.3478261 17.6087043,14.3478261 C17.3911387,14.3478261 17.2173949,14.5228407 17.2173949,14.7386456 L17.2173949,17.217405 L17.2173812,17.217405 Z" id="形状" fill-rule="nonzero"></path>
                </g>
            </g>
        </g>
    </g>
</svg>