<?xml version="1.0" encoding="UTF-8"?>
<svg width="24px" height="24px" viewBox="0 0 24 24" version="1.1" xmlns="http://www.w3.org/2000/svg" xmlns:xlink="http://www.w3.org/1999/xlink">
    <title>Group 2 Copy 3</title>
    <g id="基础" stroke="none" stroke-width="1" fill="none" fill-rule="evenodd">
        <g id="联邦项目-添加项目" transform="translate(-899.000000, -56.000000)" fill="#4376FF">
            <g id="Group-8" transform="translate(722.000000, 52.000000)">
                <g id="Group-2-Copy-3" transform="translate(177.000000, 4.000000)">
                    <circle id="Oval-Copy" fill-opacity="0.1" cx="12" cy="12" r="12"></circle>
                    <path d="M9.99210245,6.3579899 C10.1951751,6.15491727 10.5244209,6.15491727 10.7274935,6.3579899 C10.9305661,6.56106253 10.9305661,6.89030832 10.7274781,7.09339638 L10.7274781,7.09339638 L8.21768542,9.59968542 L11.2,9.6 C14.0540196,9.6 16.379157,11.8644136 16.476807,14.6946356 L16.48,14.88 L16.48,17.68 C16.48,17.9450967 16.2650967,18.16 16,18.16 C15.761413,18.16 15.5634826,17.9859283 15.5262824,17.7578585 L15.52,17.68 L15.52,14.88 C15.52,12.5523218 13.6790673,10.6546165 11.3737482,10.5634302 L11.2,10.56 L8.13968542,10.5596854 L10.7274935,13.146215 C10.8890285,13.30775 10.9220698,13.5491209 10.8266173,13.743316 L10.7778421,13.8232839 L10.7274935,13.8816061 C10.5244209,14.0846787 10.1951751,14.0846787 9.99210245,13.8816061 L9.99210245,13.8816061 L6.5979899,10.4874935 C6.39491727,10.2844209 6.39491727,9.95517508 6.5979899,9.75210245 L6.5979899,9.75210245 Z" id="Combined-Shape" fill-rule="nonzero"></path>
                </g>
            </g>
        </g>
    </g>
</svg>