<?xml version="1.0" encoding="UTF-8"?>
<svg width="12px" height="14px" viewBox="0 0 12 14" version="1.1" xmlns="http://www.w3.org/2000/svg" xmlns:xlink="http://www.w3.org/1999/xlink">
    <title>用户名</title>
    <g id="基础" stroke="none" stroke-width="1" fill="none" fill-rule="evenodd">
        <g id="登录页面" transform="translate(-667.000000, -382.000000)" fill="#FFFFFF" fill-rule="nonzero">
            <g id="编组-4" transform="translate(615.000000, 255.000000)">
                <g id="用户名" transform="translate(52.000000, 127.000000)">
                    <path d="M8.60689655,1.1234568 C7.94482759,0.432098775 6.95172414,0 5.95862069,0 C5.04827586,0 4.13793104,0.432098762 3.39310345,1.1234568 C2.73103449,1.81481482 2.4,2.7654321 2.4,3.80246914 C2.4,5.09876544 2.97931035,6.13580248 3.88965518,6.91358024 C3.06206896,7.25925926 2.31724139,7.69135802 1.82068966,8.20987654 C0.57931035,9.50617284 0,11.2345679 0,13.3950617 C0,13.7407407 0.331034488,14 0.57931035,14 C0.827586213,14 1.1586207,13.8271605 1.15862069,13.4814815 C1.15862069,11.1481481 1.9862069,9.41975308 3.55862069,8.38271604 C4.8,7.69135802 6.04137931,7.60493826 6.04137931,7.60493828 L6.28965518,7.60493828 C7.86206896,7.08641976 8.27586208,6.654321 8.68965518,6.22222222 C8.68965518,6.13580246 8.7724138,6.13580246 8.7724138,6.04938272 C9.35172415,5.18518518 9.51724139,4.75308642 9.51724137,3.80246914 C9.6,2.4197531 9.10344827,1.72839506 8.60689655,1.1234568 Z M8.35862069,3.80246914 C8.35862069,4.49382716 8.19310345,5.09876544 7.69655173,5.61728396 C7.2,6.13580248 6.62068965,6.39506172 5.87586208,6.39506172 C4.55172415,6.39506172 3.39310345,5.18518518 3.39310345,3.71604938 C3.39310345,2.24691358 4.46896553,1.03703704 5.87586208,1.03703704 C7.28275863,1.1234568 8.35862069,2.33333334 8.35862069,3.80246914 Z M9.84827586,7.86419754 C9.6,7.69135804 9.35172414,7.77777778 9.1862069,8.03703704 C9.02068966,8.2962963 9.10344827,8.55555556 9.35172414,8.6419753 C9.35172414,8.6419753 9.76551724,8.90123456 10.0965517,9.5925926 C10.5103448,10.2839506 11.0068965,11.4938272 11.0068965,13.4814815 C11.0068965,13.7407407 11.2551724,14 11.5034483,14 C11.7517241,14 12,13.8271605 12,13.4814815 C12,9.16049382 9.93103449,7.95061728 9.84827586,7.86419754 L9.84827586,7.86419754 Z" id="形状"></path>
                </g>
            </g>
        </g>
    </g>
</svg>