<?xml version="1.0" encoding="UTF-8"?>
<svg width="24px" height="24px" viewBox="0 0 24 24" version="1.1" xmlns="http://www.w3.org/2000/svg" xmlns:xlink="http://www.w3.org/1999/xlink">
    <title>Group 4</title>
    <defs>
        <circle id="path-1" cx="12" cy="12" r="12"></circle>
    </defs>
    <g id="基础" stroke="none" stroke-width="1" fill="none" fill-rule="evenodd">
        <g id="联邦项目-添加项目" transform="translate(-722.000000, -56.000000)">
            <g id="Group-8" transform="translate(722.000000, 52.000000)">
                <g id="Group-4" transform="translate(0.000000, 4.000000)">
                    <g id="Oval">
                        <use fill-opacity="0" fill="#D8D8D8" xlink:href="#path-1"></use>
                        <use fill-opacity="0.1" fill="#4376FF" xlink:href="#path-1"></use>
                    </g>
                    <g id="展开" transform="translate(6.400000, 6.400000)">
                        <rect id="Rectangle-7-Copy-9" stroke="#4376FF" stroke-width="0.8" x="0.4" y="0.4" width="10.4" height="10.4" rx="1.6"></rect>
                        <path d="M5.6,2.4 C5.8209139,2.4 6,2.5790861 6,2.8 L6,5.2 L8.4,5.2 C8.6209139,5.2 8.8,5.3790861 8.8,5.6 C8.8,5.8209139 8.6209139,6 8.4,6 L5.999,5.999 L6,8.4 C6,8.6209139 5.8209139,8.8 5.6,8.8 C5.3790861,8.8 5.2,8.6209139 5.2,8.4 L5.199,5.999 L2.8,6 C2.5790861,6 2.4,5.8209139 2.4,5.6 C2.4,5.3790861 2.5790861,5.2 2.8,5.2 L5.2,5.2 L5.2,2.8 C5.2,2.5790861 5.3790861,2.4 5.6,2.4 Z" id="合并形状" fill="#4376FF"></path>
                    </g>
                </g>
            </g>
        </g>
    </g>
</svg>