<?xml version="1.0" encoding="UTF-8"?>
<svg width="173px" height="24px" viewBox="0 0 173 24" version="1.1" xmlns="http://www.w3.org/2000/svg" xmlns:xlink="http://www.w3.org/1999/xlink">
    <title>logo</title>
    <defs>
        <path d="M9.42206733,11.0945115 C11.3736693,11.1013152 14.2168789,10.8286845 17.0549937,9.53138067 L17.0549937,9.53138067 C16.5404086,9.09643519 16.0309185,8.66148971 15.5290707,8.23140395 L15.5290707,8.23140395 C7.02389731,9.95612072 3.38359036,7.24220672 2.49860601,4.52780674 L2.49860601,4.52780674 C1.75271247,2.24057669 2.96326101,-0.0466533699 4.86798984,0.322199836 L4.86798984,0.322199836 C4.85780004,0.31734011 4.84506279,0.314910247 4.83487298,0.310050521 L4.83487298,0.310050521 C4.28640686,0.0971945207 3.77462403,0 3.30385516,0 L3.30385516,0 C-1.71207513,0.000971945207 -1.99891808,11.0544188 9.42206733,11.0945115" id="path-1"></path>
        <linearGradient x1="19.4633357%" y1="46.4274424%" x2="130.746993%" y2="81.1076758%" id="linearGradient-3">
            <stop stop-color="#FFFFFF" offset="0%"></stop>
            <stop stop-color="#C8CACA" offset="100%"></stop>
        </linearGradient>
        <polygon id="path-4" points="0 0 21.3615963 0 21.3615963 11.9657286 0 11.9657286"></polygon>
        <path d="M5.00217406,0 C3.40772471,0.00194389041 1.78576289,0.43688937 0.052732228,1.28661247 L0.052732228,1.28661247 C0.430519156,1.10412975 0.841168198,0.982150631 1.28391512,0.930880522 L1.28391512,0.930880522 C12.5844061,-0.369096192 20.3592254,22.8725436 35.1777458,22.8725436 L35.1777458,22.8725436 C38.9989217,22.8725436 41.4979708,19.725871 41.7578107,17.2474107 L41.7578107,17.2474107 C41.7629056,17.1842342 41.770548,17.1210578 41.770548,17.0603112 L41.770548,17.0603112 C41.4826861,19.9056808 37.6309407,21.6333134 28.8880901,18.2558038 L28.8880901,18.2558038 C26.3228074,17.0141438 23.8925395,15.2500633 21.6915421,12.9538427 L21.6915421,12.9538427 C21.261023,12.5091778 20.8432411,12.0426441 20.4331015,11.5566715 L20.4331015,11.5566715 C20.3108239,11.4108797 20.1885462,11.2626581 20.0662686,11.1120066 L20.0662686,11.1120066 C13.9472922,3.57092669 9.5972655,0.00753257535 5.02790331,0 L5.02790331,0 L5.00217406,0 Z M5.95357097e-14,1.31236902 C0.0178321544,1.30362151 0.0351548187,1.29511699 0.052732228,1.28661247 L0.052732228,1.28661247 C0.0351548187,1.29511699 0.0175774093,1.30362151 5.95357097e-14,1.31236902 L5.95357097e-14,1.31236902 Z" id="path-6"></path>
        <linearGradient x1="80.3515543%" y1="58.8883336%" x2="-14.5342163%" y2="24.08039%" id="linearGradient-8">
            <stop stop-color="#FFFFFF" offset="0%"></stop>
            <stop stop-color="#C8CACA" offset="100%"></stop>
        </linearGradient>
        <path d="M3.99170291,0.0524850412 C3.52832164,0.105942028 3.10009519,0.23715463 2.70778779,0.433973535 L2.70778779,0.433973535 C-2.101799,2.85168724 -1.35208428,16.0830203 11.944589,15.7452694 L11.944589,15.7452694 C-0.535116861,15.1961203 1.05703978,2.61356066 7.31612598,4.96080833 L7.31612598,4.96080833 C7.32631578,4.96566806 7.33905304,4.96809792 7.34924284,4.97295765 L7.34924284,4.97295765 C10.2609789,6.07854532 13.9394976,9.38801875 18.0103237,12.8821618 L18.0103237,12.8821618 C18.5121715,13.3122475 19.0216616,13.747193 19.5362467,14.1821385 L19.5362467,14.1821385 C24.8960828,18.7041136 30.8265478,23.1216045 36.5203547,23.1216045 L36.5203547,23.1216045 C41.0953213,23.1216045 44.1754439,20.1377327 44.4655985,16.3690152 L44.4655985,16.3690152 C44.2057586,18.8474755 41.7067095,21.9941481 37.8855335,21.9941481 L37.8855335,21.9941481 C23.4695104,21.9941481 15.7211846,-0.00194389041 4.90649243,0 L4.90649243,0 C4.60436479,0 4.29867071,0.0172520274 3.99170291,0.0524850412" id="path-9"></path>
        <linearGradient x1="18.2582781%" y1="43.6883199%" x2="106.676274%" y2="69.0725691%" id="linearGradient-11">
            <stop stop-color="#FFFFFF" offset="0%"></stop>
            <stop stop-color="#C8CACA" offset="100%"></stop>
        </linearGradient>
        <path d="M2.55022848,0 C2.53010362,0.000728958905 2.50946927,0.000728958905 2.48883492,0.000728958905 L2.48883492,0.000728958905 C2.46820057,0.000728958905 2.44756622,0.000728958905 2.42795085,0.00121493151 L2.42795085,0.00121493151 C0.789430605,0.0602606028 -1.12574278,1.15442792 0.821273737,1.28321066 L0.821273737,1.28321066 C2.23077817,1.37773233 3.53863932,1.73783803 4.5769802,2.06343967 L4.5769802,2.06343967 C2.41878003,1.27932288 7.55494999,1.41345132 7.07399131,2.39001326 L7.07399131,2.39001326 C7.38350656,1.93076915 6.84242805,1.04775693 5.79160466,0.571260795 L5.79160466,0.571260795 C4.9947621,0.249789918 4.00023738,0.0267284932 2.8149086,0.00315882192 L2.8149086,0.00315882192 C2.74077779,0.000485972603 2.66893968,0 2.5955731,0 L2.5955731,0 C2.58054314,0 2.56525844,0 2.55022848,0" id="path-12"></path>
        <linearGradient x1="38.9724234%" y1="48.8246849%" x2="124.034239%" y2="51.9098844%" id="linearGradient-14">
            <stop stop-color="#FFFFFF" offset="0%"></stop>
            <stop stop-color="#C8CACA" offset="100%"></stop>
        </linearGradient>
        <polygon id="path-15" points="0 0 5.07655962 0 5.07655962 5.58863533 0 5.58863533"></polygon>
        <polygon id="path-17" points="0 24 73 24 73 0 0 0"></polygon>
    </defs>
    <g id="基础" stroke="none" stroke-width="1" fill="none" fill-rule="evenodd">
        <g id="联邦学习平台" transform="translate(0.000000, -12.000000)">
            <g id="logo" transform="translate(0.000000, 12.000000)">
                <text id="联邦学习平台" font-family="PingFangSC-Medium, PingFang SC" font-size="14" font-weight="400" letter-spacing="1.3125" fill="#FFFFFF">
                    <tspan x="81" y="19">隐私计算平台</tspan>
                </text>
                <g id="Group-48">
                    <g id="Group-3" transform="translate(30.978716, 5.529153)">
                        <mask id="mask-2" fill="white">
                            <use xlink:href="#path-1"></use>
                        </mask>
                        <g id="Clip-2"></g>
                        <path d="M9.42206733,11.0945115 C11.3736693,11.1013152 14.2168789,10.8286845 17.0549937,9.53138067 L17.0549937,9.53138067 C16.5404086,9.09643519 16.0309185,8.66148971 15.5290707,8.23140395 L15.5290707,8.23140395 C7.02389731,9.95612072 3.38359036,7.24220672 2.49860601,4.52780674 L2.49860601,4.52780674 C1.75271247,2.24057669 2.96326101,-0.0466533699 4.86798984,0.322199836 L4.86798984,0.322199836 C4.85780004,0.31734011 4.84506279,0.314910247 4.83487298,0.310050521 L4.83487298,0.310050521 C4.28640686,0.0971945207 3.77462403,0 3.30385516,0 L3.30385516,0 C-1.71207513,0.000971945207 -1.99891808,11.0544188 9.42206733,11.0945115" id="Fill-1" fill="url(#linearGradient-3)" mask="url(#mask-2)"></path>
                    </g>
                    <g id="Group-6" transform="translate(51.638404, 8.275925)">
                        <mask id="mask-5" fill="white">
                            <use xlink:href="#path-4"></use>
                        </mask>
                        <g id="Clip-5"></g>
                        <path d="M0,3.28074674 C14.6373966,-4.85735047 21.8354731,4.14116124 21.3374465,8.78438647 C20.9848793,12.0707762 17.1978392,13.3573887 8.45498864,9.97987908 C20.2012835,13.6125243 19.1168338,-1.8200217 1.25844061,4.67791798 C0.827921455,4.23325304 0.410139551,3.76671934 0,3.28074674" id="Fill-4" fill="#E2E3E3" mask="url(#mask-5)"></path>
                    </g>
                    <g id="Group-9" transform="translate(31.205251, 0.000000)">
                        <mask id="mask-7" fill="white">
                            <use xlink:href="#path-6"></use>
                        </mask>
                        <g id="Clip-8"></g>
                        <path d="M5.00217406,0 C3.40772471,0.00194389041 1.78576289,0.43688937 0.052732228,1.28661247 L0.052732228,1.28661247 C0.430519156,1.10412975 0.841168198,0.982150631 1.28391512,0.930880522 L1.28391512,0.930880522 C12.5844061,-0.369096192 20.3592254,22.8725436 35.1777458,22.8725436 L35.1777458,22.8725436 C38.9989217,22.8725436 41.4979708,19.725871 41.7578107,17.2474107 L41.7578107,17.2474107 C41.7629056,17.1842342 41.770548,17.1210578 41.770548,17.0603112 L41.770548,17.0603112 C41.4826861,19.9056808 37.6309407,21.6333134 28.8880901,18.2558038 L28.8880901,18.2558038 C26.3228074,17.0141438 23.8925395,15.2500633 21.6915421,12.9538427 L21.6915421,12.9538427 C21.261023,12.5091778 20.8432411,12.0426441 20.4331015,11.5566715 L20.4331015,11.5566715 C20.3108239,11.4108797 20.1885462,11.2626581 20.0662686,11.1120066 L20.0662686,11.1120066 C13.9472922,3.57092669 9.5972655,0.00753257535 5.02790331,0 L5.02790331,0 L5.00217406,0 Z M5.95357097e-14,1.31236902 C0.0178321544,1.30362151 0.0351548187,1.29511699 0.052732228,1.28661247 L0.052732228,1.28661247 C0.0351548187,1.29511699 0.0175774093,1.30362151 5.95357097e-14,1.31236902 L5.95357097e-14,1.31236902 Z" id="Fill-7" fill="url(#linearGradient-8)" mask="url(#mask-7)"></path>
                    </g>
                    <g id="Group-12" transform="translate(28.497463, 0.878395)">
                        <mask id="mask-10" fill="white">
                            <use xlink:href="#path-9"></use>
                        </mask>
                        <g id="Clip-11"></g>
                        <path d="M3.99170291,0.0524850412 C3.52832164,0.105942028 3.10009519,0.23715463 2.70778779,0.433973535 L2.70778779,0.433973535 C-2.101799,2.85168724 -1.35208428,16.0830203 11.944589,15.7452694 L11.944589,15.7452694 C-0.535116861,15.1961203 1.05703978,2.61356066 7.31612598,4.96080833 L7.31612598,4.96080833 C7.32631578,4.96566806 7.33905304,4.96809792 7.34924284,4.97295765 L7.34924284,4.97295765 C10.2609789,6.07854532 13.9394976,9.38801875 18.0103237,12.8821618 L18.0103237,12.8821618 C18.5121715,13.3122475 19.0216616,13.747193 19.5362467,14.1821385 L19.5362467,14.1821385 C24.8960828,18.7041136 30.8265478,23.1216045 36.5203547,23.1216045 L36.5203547,23.1216045 C41.0953213,23.1216045 44.1754439,20.1377327 44.4655985,16.3690152 L44.4655985,16.3690152 C44.2057586,18.8474755 41.7067095,21.9941481 37.8855335,21.9941481 L37.8855335,21.9941481 C23.4695104,21.9941481 15.7211846,-0.00194389041 4.90649243,0 L4.90649243,0 C4.60436479,0 4.29867071,0.0172520274 3.99170291,0.0524850412" id="Fill-10" fill="url(#linearGradient-11)" mask="url(#mask-10)"></path>
                    </g>
                    <path d="M69.5382184,5.61298357 C71.6762937,6.4763139 72.3972222,8.06301445 71.596049,8.54607122 C70.4909649,9.21063875 68.926066,8.28874872 66.217107,7.37633516 C64.4736318,6.78903727 62.5671197,6.8417653 61.2370958,7.00942584 C60.8684797,7.05437831 60.6978005,6.58395683 61.0215814,6.40827773 C62.1582539,5.78671877 63.9394314,5.07282502 66.1745646,5.0429377 C64.5360443,5.10174039 62.6208709,6.19615069 64.5678875,6.32493343 C65.9773919,6.4194551 67.2852531,6.77931782 68.3235939,7.10491946 C68.3269056,7.10491946 68.3269056,7.10807828 68.3302173,7.1078353 C69.4490576,7.45579168 70.255071,7.76438428 70.5449709,7.64677891 C70.6718339,7.59477984 70.7615042,7.52212694 70.8208598,7.43173604 C71.1301203,6.97249193 70.5890418,6.08947971 69.5382184,5.61298357" id="Fill-13" fill="#D9D9D9"></path>
                    <g id="Group-17" transform="translate(63.746665, 5.041723)">
                        <mask id="mask-13" fill="white">
                            <use xlink:href="#path-12"></use>
                        </mask>
                        <g id="Clip-16"></g>
                        <path d="M2.55022848,0 C2.53010362,0.000728958905 2.50946927,0.000728958905 2.48883492,0.000728958905 L2.48883492,0.000728958905 C2.46820057,0.000728958905 2.44756622,0.000728958905 2.42795085,0.00121493151 L2.42795085,0.00121493151 C0.789430605,0.0602606028 -1.12574278,1.15442792 0.821273737,1.28321066 L0.821273737,1.28321066 C2.23077817,1.37773233 3.53863932,1.73783803 4.5769802,2.06343967 L4.5769802,2.06343967 C2.41878003,1.27932288 7.55494999,1.41345132 7.07399131,2.39001326 L7.07399131,2.39001326 C7.38350656,1.93076915 6.84242805,1.04775693 5.79160466,0.571260795 L5.79160466,0.571260795 C4.9947621,0.249789918 4.00023738,0.0267284932 2.8149086,0.00315882192 L2.8149086,0.00315882192 C2.74077779,0.000485972603 2.66893968,0 2.5955731,0 L2.5955731,0 C2.58054314,0 2.56525844,0 2.55022848,0" id="Fill-15" fill="url(#linearGradient-14)" mask="url(#mask-13)"></path>
                    </g>
                    <g id="Group-47">
                        <path d="M14.4744107,23.9984449 L15.6653439,23.9984449 L15.6645796,21.3195209 C15.6640701,20.2984925 14.6308242,19.4708811 13.5603854,19.4708811 C12.9388074,19.4708811 12.4614152,19.6016078 12.109867,19.8720515 L10.9189338,19.4708811 L10.9189338,23.9984449 L12.109867,23.9984449 L12.109867,21.7639429 C12.109867,21.0121432 12.8165298,20.6070851 13.2921388,20.6070851 C13.8867138,20.6070851 14.4744107,21.0668152 14.4744107,21.6339452 L14.4744107,21.6762248 L14.4744107,23.9984449 Z" id="Fill-18" fill="#FFFFFF"></path>
                        <polygon id="Fill-20" fill="#FFFFFF" points="19.536246 19.470954 18.3539742 22.5634407 17.1717024 19.470954 15.9807692 19.470954 17.7115071 23.9985178 17.8052533 23.9985178 18.9026951 23.9985178 18.9964412 23.9985178 20.7271792 19.470954"></polygon>
                        <g id="Group-24" transform="translate(21.496025, 18.411365)">
                            <mask id="mask-16" fill="white">
                                <use xlink:href="#path-15"></use>
                            </mask>
                            <g id="Clip-23"></g>
                            <path d="M2.22723609,4.38388495 C1.55216167,4.13725385 1.13183231,3.48945237 1.13183231,2.79985725 L1.13183231,2.79426856 L1.13183231,2.78867988 C1.13183231,2.09932774 1.55216167,1.45128327 2.22723609,1.20465218 C3.12139126,0.878078588 3.98141059,1.20902593 4.42390276,1.83179982 L5.07655962,0.893143738 C4.31181494,0.107569025 3.07884883,-0.2573964 1.8010476,0.201361738 C0.698256218,0.597429409 0,1.64251349 0,2.76656812 L0,2.79426856 L0,2.821969 C0,3.94626662 0.698256218,4.99110772 1.8010476,5.38717539 C3.07884883,5.84617651 4.31156019,5.4809681 5.07655962,4.69563637 L5.07655962,4.69539339 L4.42390276,3.7567373 C3.98141059,4.37951119 3.12139126,4.71070152 2.22723609,4.38388495" id="Fill-22" fill="#FFFFFF" mask="url(#mask-16)"></path>
                        </g>
                        <path d="M39.7576289,19.470954 L38.6556018,19.470954 C38.6308915,19.470954 38.6110214,19.489907 38.6110214,19.5132336 L38.6110214,21.7931741 C38.6110214,22.3836308 38.0205223,22.8623138 37.4287496,22.8623138 C36.8369768,22.8623138 36.2464777,22.3836308 36.2464777,21.7931741 L36.2464777,19.5132336 C36.2464777,19.489907 36.2266076,19.470954 36.2021521,19.470954 L35.0998702,19.470954 C35.0754147,19.470954 35.0555445,19.489907 35.0555445,19.5132336 L35.0563088,21.7360723 C35.0568183,22.9857509 36.1188504,23.9985178 37.4287496,23.9985178 C38.7389034,23.9985178 39.8009356,22.9857509 39.8011903,21.7360723 L39.8019546,19.5132336 C39.8019546,19.489907 39.7820844,19.470954 39.7576289,19.470954" id="Fill-25" fill="#FFFFFF"></path>
                        <path d="M31.9597297,22.8623867 C31.3068181,22.8623867 30.7774579,22.3574612 30.7774579,21.7346873 C30.7774579,21.1119134 31.3068181,20.6069879 31.9597297,20.6069879 C32.6126413,20.6069879 33.1420015,21.1119134 33.1420015,21.7346873 C33.1420015,22.3574612 32.6126413,22.8623867 31.9597297,22.8623867 M31.9597297,19.4710269 C30.6490663,19.4710269 29.5865247,20.4845228 29.5865247,21.7346873 C29.5865247,22.9848518 30.6490663,23.9983477 31.9597297,23.9983477 C33.270393,23.9983477 34.3329347,22.9848518 34.3329347,21.7346873 C34.3329347,20.4845228 33.270393,19.4710269 31.9597297,19.4710269" id="Fill-27" fill="#FFFFFF"></path>
                        <mask id="mask-18" fill="white">
                            <use xlink:href="#path-17"></use>
                        </mask>
                        <g id="Clip-30"></g>
                        <polygon id="Fill-29" fill="#FFFFFF" mask="url(#mask-18)" points="27.5366676 23.9985421 28.7250533 23.9985421 28.7250533 18.1053953 27.5366676 18.1053953"></polygon>
                        <path d="M7.82306804,19.470954 C4.86114719,19.470954 5.32045254,23.4722095 2.61531471,22.7823713 C1.83604957,22.5838515 1.30286815,21.8954713 1.30286815,21.1259337 L1.30286815,21.1232609 C1.30286815,20.1700256 2.11499541,19.2836116 3.11334131,19.240117 C3.80471941,19.2097438 4.41941925,19.5324296 4.77631708,20.0349252 L5.46489299,19.0442701 C4.82675661,18.388936 3.87961446,18.0108493 2.84433053,18.1209221 C1.53239345,18.2606393 0.274207586,19.4614776 0.128748155,20.712857 C-0.0783595814,22.4922457 1.37623473,23.9985178 3.19995463,23.9985178 C6.34554667,23.9985178 6.30580644,20.4793472 7.90942661,20.6105598 C8.42069996,20.6523534 8.93299228,21.1050369 8.99591431,21.5907665 C9.08507508,22.2779318 8.52565492,22.8623138 7.82306804,22.8623138 C7.21269887,22.8623138 6.7103416,22.4212937 6.64741957,21.8548926 L5.88012744,23.0256006 C6.39140078,23.7256442 7.30135015,24.1404218 8.30096978,23.9535653 C9.23461043,23.7791012 9.98075872,23.0601047 10.1542401,22.168102 C10.4342049,20.7274362 9.2825025,19.470954 7.82306804,19.470954" id="Fill-31" fill="#FFFFFF" mask="url(#mask-18)"></path>
                        <path d="M44.598371,18.7975418 L44.598371,18.1111055 L44.0766531,18.1111055 L44.0763984,21.7347602 C44.0763984,21.7347602 44.0766531,21.7362181 44.0766531,21.7369471 C44.0766531,22.359235 43.5478024,22.8634316 42.8954003,22.8634316 C42.2432529,22.8634316 41.7144022,22.359235 41.7144022,21.7369471 C41.7144022,21.1146592 42.2432529,20.6104626 42.8954003,20.6104626 C43.2961143,20.6104626 43.6489362,20.8016928 43.8624125,21.0927904 L43.8624125,19.6754513 C43.5666535,19.5488554 43.2405798,19.4754736 42.8954003,19.4754736 C41.5860107,19.4754736 40.524488,20.4879975 40.524488,21.7369471 C40.524488,22.9858967 41.5860107,23.9984206 42.8954003,23.9984206 C43.3256647,23.9984206 43.7286714,23.8885908 44.0766531,23.6976035 L44.0766531,23.9984206 L45.2663126,23.9984206 L45.2663126,18.7975418 L44.598371,18.7975418 Z" id="Fill-32" fill="#FFFFFF" mask="url(#mask-18)"></path>
                        <polygon id="Fill-33" fill="#FFFFFF" mask="url(#mask-18)" points="44.867229 18.5814055 45.6910745 18.5814055 45.6910745 17.7955878 44.867229 17.7955878"></polygon>
                        <polygon id="Fill-34" fill="#FFFFFF" mask="url(#mask-18)" points="45.4829478 17.3399885 45.8622632 17.3399885 45.8622632 16.9781819 45.4829478 16.9781819"></polygon>
                        <polygon id="Fill-35" fill="#FFFFFF" mask="url(#mask-18)" points="45.9679824 18.1083111 46.4112388 18.1083111 46.4112388 17.685515 45.9679824 17.685515"></polygon>
                        <polygon id="Fill-36" fill="#FFFFFF" mask="url(#mask-18)" points="11.9355704 13.2964534 15.4976707 13.2964534 15.4976707 12.683399 11.9355704 12.683399"></polygon>
                        <path d="M12.0107457,16.7004485 C11.8263103,16.7002055 11.6637829,16.5901327 11.6034083,16.4185844 C11.55679,16.2854279 11.5950018,16.1379352 11.6841625,16.0264045 L12.7981627,14.7273997 L11.5218899,14.7273997 L11.5218899,14.1143453 L15.9116569,14.1143453 L15.9116569,14.7273997 L13.6067235,14.7273997 L12.5722038,15.9328548 C12.522019,15.9960312 12.5691469,16.0869081 12.6524485,16.0869081 L14.7625019,16.0869081 C14.9219723,16.0869081 14.9311431,15.9693027 14.8677116,15.8842575 C14.7495099,15.7258305 14.4178318,15.2354841 14.4178318,15.2354841 L15.2139101,15.2359701 C15.2139101,15.2359701 15.6408629,15.8256978 15.7909077,16.0281054 C15.8762473,16.1430379 15.9192992,16.2878578 15.8726809,16.4215002 C15.8128158,16.5935345 15.6495242,16.7036073 15.4650888,16.7036073 L12.0107457,16.7004485 Z" id="Fill-37" fill="#FFFFFF" mask="url(#mask-18)"></path>
                        <path d="M21.1948657,15.0074172 L21.1948657,12.3377267 L20.5521439,12.3377267 L20.5521439,15.0074172 L18.9681391,15.0074172 L18.623469,14.5697988 L18.9757814,14.5697988 L18.9757814,13.9567444 L18.2879698,13.9567444 L18.2879698,13.2703081 C18.4797928,13.2331312 18.599523,13.1915805 18.7398875,13.1427403 L18.8155468,13.1167407 L18.8112161,12.3377267 L18.6481793,12.4140244 C17.8085395,12.8074192 17.0774212,12.899268 17.0702884,12.9002399 L16.9709378,12.9121463 L16.9696641,13.2863452 L16.9704283,13.4041935 L17.125568,13.3927732 C17.2047937,13.3883994 17.4710023,13.378194 17.645248,13.360942 L17.645248,13.9567444 L16.7931257,13.9567444 L16.7931257,14.5697988 L17.1579207,14.5697988 L16.7931257,15.080313 L16.7931257,16.1181075 L17.645248,14.9981837 L17.645248,16.7770864 L18.2879698,16.7770864 L18.2879698,15.1053406 L18.6247427,15.6204716 L20.5521439,15.6204716 L20.5521439,16.7770864 L21.1948657,16.7770864 L21.1948657,15.6204716 L21.6388863,15.6204716 L21.6388863,15.0074172 L21.1948657,15.0074172 Z" id="Fill-38" fill="#FFFFFF" mask="url(#mask-18)"></path>
                        <path d="M20.3358144,12.9413046 C19.926439,12.8399793 19.543812,12.6762066 19.1978682,12.4631076 L19.1978682,13.2202529 C19.552728,13.3969039 19.9340814,13.5320043 20.3358144,13.6155916 L20.3358144,12.9413046 Z" id="Fill-39" fill="#FFFFFF" mask="url(#mask-18)"></path>
                        <path d="M20.3358144,14.0937644 C19.926439,13.9924391 19.543812,13.8286663 19.1978682,13.6155673 L19.1978682,14.3727126 C19.552728,14.5493637 19.9340814,14.6844641 20.3358144,14.7680514 L20.3358144,14.0937644 Z" id="Fill-40" fill="#FFFFFF" mask="url(#mask-18)"></path>
                        <path d="M9.87460645,13.9679461 C9.87460645,14.0425429 9.81117493,14.1032894 9.7329682,14.1032894 L8.87600581,14.1032894 L8.87600581,13.1519981 L9.87460645,13.1519981 L9.87460645,13.9679461 Z M10.5173282,14.1545595 L10.5173282,12.5389436 L8.23328401,12.5389436 L8.23328401,14.7161009 L9.92861241,14.7161009 C10.2531576,14.7161009 10.5173282,14.4641241 10.5173282,14.1545595 L10.5173282,14.1545595 Z" id="Fill-41" fill="#FFFFFF" mask="url(#mask-18)"></path>
                        <path d="M8.09325065,16.1180103 L8.09325065,15.0802159 L7.72845572,14.5697016 L8.09325065,14.5697016 L8.09325065,13.9568902 L7.22864591,13.9568902 L7.22864591,13.2702109 C7.42046894,13.233277 7.54019912,13.1914833 7.68056365,13.1428861 L7.75622293,13.1166435 L7.75189227,12.3378725 L7.58885543,12.4141702 C6.7492157,12.807322 6.01809737,12.8994138 6.01096451,12.9001428 L5.91161393,12.9122921 L5.91034021,13.286248 L5.91110444,13.4040963 L6.06624419,13.392919 C6.1454699,13.3885452 6.41167849,13.3783398 6.58592411,13.3610878 L6.58592411,13.9568902 L5.73380188,13.9568902 L5.73380188,14.5697016 L6.09859681,14.5697016 L5.73380188,15.0802159 L5.73380188,16.1180103 L6.58592411,14.9983295 L6.58592411,16.7769892 L7.22864591,16.7769892 L7.22864591,14.9820494 L8.09325065,16.1180103 Z" id="Fill-42" fill="#FFFFFF" mask="url(#mask-18)"></path>
                        <path d="M10.28979,15.4292171 C10.2403694,15.2758927 10.0905793,15.1711656 9.92091911,15.1711656 C9.79813199,15.1711656 9.68273247,15.2263235 9.61013013,15.3201162 L8.6235025,16.5919065 L9.2272483,15.1711656 L8.55650455,15.1711656 L7.96192957,16.7770621 L8.6207003,16.7770621 L9.57803225,15.5951767 C9.62388636,15.5383179 9.71865153,15.554355 9.74106909,15.6228772 L10.117837,16.7770621 L10.7251493,16.7770621 L10.28979,15.4292171 Z" id="Fill-43" fill="#FFFFFF" mask="url(#mask-18)"></path>
                        <path d="M24.2857385,14.0984297 C24.2857385,14.0984297 23.9576268,14.39463 23.8131864,14.4665539 L23.8131864,13.7322493 L24.3145247,13.7322493 L24.3145247,13.1196809 L23.8131864,13.1196809 L23.8131864,12.337751 L23.1709741,12.337751 L23.1709741,13.1196809 L22.4021535,13.1196809 L22.4021535,13.7322493 L23.1709741,13.7322493 L23.1709741,14.7984732 C22.7972631,15.0028247 22.4021535,15.0883559 22.4021535,15.0883559 L22.4021535,15.5335068 C22.4021535,15.5335068 22.7908944,15.4924421 23.1709741,15.3250246 L23.1709741,16.114487 L22.5020135,15.9793867 L22.5020135,16.5817497 L23.2188661,16.7671483 C23.251983,16.7737089 23.2856093,16.7771107 23.3192357,16.7771107 C23.4494104,16.7771107 23.572707,16.7287564 23.6661985,16.6407954 C23.7609636,16.5516194 23.8131864,16.4325561 23.8131864,16.3052313 L23.8131864,15.1415699 C24.0444949,15.0611414 24.2857385,14.9080601 24.2857385,14.9080601 L24.2857385,14.0984297 Z" id="Fill-44" fill="#FFFFFF" mask="url(#mask-18)"></path>
                        <path d="M27.043583,13.7333914 L27.043583,13.1208229 L26.0177247,13.1208229 L26.0177247,12.3376781 L25.3755124,12.3376781 L25.3755124,13.1208229 L24.4403432,13.1208229 L24.4403432,13.7333914 L25.3755124,13.7333914 L25.3755124,14.1348048 L24.5053032,14.1348048 C24.5053032,14.1348048 24.5572712,14.503172 24.6596787,14.7473732 L26.1343979,14.7488311 C26.0179794,15.0411437 25.8674251,15.2868028 25.6817159,15.4916403 C25.5683544,15.3470634 25.4677301,15.1832906 25.3737292,14.9935183 L24.7292241,14.9935183 C24.865258,15.3271385 25.0344087,15.6138624 25.2432997,15.8568487 C24.9903378,16.0145468 24.6943241,16.1275354 24.3491445,16.1975155 L24.220753,16.223029 L24.220753,16.7597858 L24.4090096,16.7245528 C24.8818164,16.6358628 25.2980699,16.4677162 25.6508918,16.2291037 C25.973399,16.4640714 26.3649422,16.6327039 26.8553264,16.7245528 L27.043583,16.7597858 L27.043583,16.223029 L26.9154463,16.1975155 C26.566955,16.1270494 26.2989632,16.0162477 26.0775898,15.8653532 C26.4273547,15.5081633 26.6856662,15.0605826 26.827814,14.5255267 C26.850741,14.4378087 26.8374943,14.3442589 26.7916402,14.2686902 C26.7401817,14.1848599 26.6543326,14.1348048 26.5616054,14.1348048 L26.0177247,14.1348048 L26.0177247,13.7333914 L27.043583,13.7333914 Z" id="Fill-45" fill="#FFFFFF" mask="url(#mask-18)"></path>
                        <path d="M4.95489337,16.1180103 L4.95489337,15.3839487 C4.5740495,15.1402335 4.22275606,14.8056413 3.90305101,14.4530682 L4.84586249,14.4530682 L4.84586249,13.8526491 L3.39228716,13.8526491 L3.15410052,13.8526491 L2.78421069,13.8526491 C2.71517478,13.8526491 2.67314184,13.9267599 2.71262733,13.9809458 C2.86776707,14.1950168 3.03487983,14.4081157 3.21167291,14.615869 C3.13652311,14.5859817 3.05424046,14.5692157 2.96762714,14.5692157 L2.43801215,14.5692157 C2.14734803,14.5692157 1.87706352,14.652074 1.65059516,14.793735 C2.03398648,14.3840601 2.3733069,13.9328345 2.65454545,13.4412732 L3.15410052,13.4412732 L3.78357557,13.4412732 L4.33509864,13.4412732 L4.33509864,12.8406111 L4.0296593,12.8406111 L4.17792093,12.4785615 L3.46896542,12.5475696 L3.36553893,12.8406111 L2.95998479,12.8406111 C3.03462509,12.6756234 3.10671794,12.5091778 3.16913048,12.3378725 L2.50220791,12.3378725 C2.43240776,12.5094208 2.35445577,12.6765954 2.27140888,12.8406111 L1.77363703,12.8406111 L1.67046528,12.5475696 L0.961509766,12.4785615 L1.10977139,12.8406111 L0.632379144,12.8406111 L0.632379144,13.4412732 L1.35560038,13.4412732 L1.9221534,13.4412732 C1.83069992,13.5822053 1.73440629,13.7192496 1.63276301,13.8526491 L0.138428467,13.8526491 L0.138428467,14.4530682 L1.12098018,14.4530682 C0.782423987,14.8027255 0.406929764,15.1154489 0.000101898025,15.3839487 L0.000101898025,16.1180103 C0.436734936,15.8636037 0.841015351,15.5598708 1.21447161,15.2223628 C1.07894724,15.431574 0.99946678,15.6772332 0.99946678,15.9413593 L0.99946678,16.2961193 C0.99946678,16.5617033 1.22517091,16.7769892 1.50360726,16.7769892 L4.18174211,16.7769892 L4.18174211,16.0451145 C4.18174211,16.0451145 3.88216191,16.1641777 3.81465447,16.1641777 L1.80726337,16.1641777 C1.75249319,16.1641777 1.70816755,16.1216551 1.70816755,16.0694131 L1.70816755,15.8205951 C1.70816755,15.468022 2.00774774,15.1820271 2.37763757,15.1820271 L2.75669822,15.1820271 C2.85706778,15.1820271 2.93833145,15.2595397 2.9385862,15.3552763 L2.93935043,15.5795527 L2.84917068,15.8031001 L3.60372556,15.8021282 L3.60499928,15.1786253 C3.60525403,15.1237104 3.59531897,15.0714683 3.58105325,15.0209272 C3.99526872,15.449798 4.45482881,15.8351743 4.95489337,16.1180103" id="Fill-46" fill="#FFFFFF" mask="url(#mask-18)"></path>
                    </g>
                </g>
            </g>
        </g>
    </g>
</svg>