<?xml version="1.0" encoding="UTF-8"?>
<svg width="126px" height="43px" viewBox="0 0 126 43" version="1.1" xmlns="http://www.w3.org/2000/svg" xmlns:xlink="http://www.w3.org/1999/xlink">
    <title>Group 48</title>
    <defs>
        <path d="M16.2627464,19.8776665 C19.6312648,19.8898563 24.5387225,19.4013931 29.4373863,17.077057 L29.4373863,17.077057 C28.5491985,16.2977797 27.6698045,15.5185024 26.8036015,14.7479321 L26.8036015,14.7479321 C12.1234392,17.8380496 5.84016966,12.9756204 4.31266243,8.11232042 L4.31266243,8.11232042 C3.02522974,4.01436657 5.11466968,-0.0835872878 8.40228384,0.577274706 L8.40228384,0.577274706 C8.38469596,0.568567697 8.36271111,0.564214192 8.34512323,0.555507183 L8.34512323,0.555507183 C7.39845568,0.174140183 6.51510449,0 5.70254452,0 L5.70254452,0 C-2.95508859,0.00174140183 -3.45018736,19.8058337 16.2627464,19.8776665" id="path-1"></path>
        <linearGradient x1="19.4633357%" y1="46.1505535%" x2="130.746993%" y2="83.518658%" id="linearGradient-3">
            <stop stop-color="#FFFFFF" offset="0%"></stop>
            <stop stop-color="#C8CACA" offset="100%"></stop>
        </linearGradient>
        <polygon id="path-4" points="0 0 36.8707005 0 36.8707005 21.438597 0 21.438597"></polygon>
        <path d="M8.63388947,0 C5.88182621,0.00348280366 3.08227568,0.782760122 0.0910172703,2.30518067 L0.0910172703,2.30518067 C0.743087859,1.97823248 1.45187936,1.75968655 2.21607267,1.6678276 L2.21607267,1.6678276 C21.7210297,-0.661297344 35.1405809,40.9799739 60.7177529,40.9799739 L60.7177529,40.9799739 C67.3132073,40.9799739 71.6266345,35.3421855 72.0751254,30.9016108 L72.0751254,30.9016108 C72.0839193,30.7884197 72.0971102,30.6752286 72.0971102,30.5663909 L72.0971102,30.5663909 C71.6002527,35.6643448 64.9520346,38.7596865 49.861635,32.7083152 L49.861635,32.7083152 C45.4338867,30.4836744 41.2391777,27.32303 37.440196,23.2089682 L37.440196,23.2089682 C36.6971081,22.4122769 35.9760051,21.576404 35.268093,20.7057031 L35.268093,20.7057031 C35.0570385,20.4444928 34.8459839,20.178929 34.6349294,19.9090118 L34.6349294,19.9090118 C24.0734085,6.39791032 16.5651432,0.0134958642 8.67829886,0 L8.67829886,0 L8.63388947,0 Z M8.32667268e-17,2.35132782 C0.0307787871,2.3356552 0.0606781802,2.32041794 0.0910172703,2.30518067 L0.0910172703,2.30518067 C0.0606781802,2.32041794 0.0303390901,2.3356552 8.32667268e-17,2.35132782 L8.32667268e-17,2.35132782 Z" id="path-6"></path>
        <linearGradient x1="80.3515543%" y1="59.5772187%" x2="-14.5342163%" y2="22.0715058%" id="linearGradient-8">
            <stop stop-color="#FFFFFF" offset="0%"></stop>
            <stop stop-color="#C8CACA" offset="100%"></stop>
        </linearGradient>
        <path d="M6.88978858,0.0940356987 C6.08997982,0.189812799 5.35084923,0.424902046 4.67371591,0.777535916 L4.67371591,0.777535916 C-3.62776265,5.10927296 -2.33373451,28.8154114 20.6166879,28.2102743 L20.6166879,28.2102743 C-0.923626363,27.2263822 1.82447963,4.68262952 12.6278339,8.88811493 L12.6278339,8.88811493 C12.6454218,8.89682194 12.6674066,8.90117545 12.6849945,8.90988246 L12.6849945,8.90988246 C17.7107307,10.890727 24.0599548,16.8202003 31.0863122,23.0805398 L31.0863122,23.0805398 C31.9525152,23.8511101 32.8319091,24.6303875 33.720097,25.4096648 L33.720097,25.4096648 C42.971321,33.5115368 53.2074661,41.4262081 63.0351329,41.4262081 L63.0351329,41.4262081 C70.9316505,41.4262081 76.2480264,36.0801045 76.7488413,29.3278189 L76.7488413,29.3278189 C76.3003504,33.7683936 71.9869232,39.406182 65.3914689,39.406182 L65.3914689,39.406182 C40.509018,39.406182 27.1351953,-0.00348280366 8.46874036,0 L8.46874036,0 C7.94725977,0 7.41962342,0.0309098825 6.88978858,0.0940356987" id="path-9"></path>
        <linearGradient x1="18.2582781%" y1="43.1991369%" x2="106.676274%" y2="70.5507774%" id="linearGradient-11">
            <stop stop-color="#FFFFFF" offset="0%"></stop>
            <stop stop-color="#C8CACA" offset="100%"></stop>
        </linearGradient>
        <path d="M4.40176423,0 C4.36702817,0.00130605137 4.33141271,0.00130605137 4.29579726,0.00130605137 L4.29579726,0.00130605137 C4.26018181,0.00130605137 4.22456635,0.00130605137 4.19070969,0.00217675229 L4.19070969,0.00217675229 C1.36257885,0.107966913 -1.94306288,2.06835002 1.41754097,2.29908576 L1.41754097,2.29908576 C3.85038424,2.46843709 6.10778842,3.11362647 7.89999322,3.69699608 L7.89999322,3.69699608 C4.1748806,2.29212016 13.0400507,2.53243361 12.2099028,4.2821071 L12.2099028,4.2821071 C12.7441346,3.45929473 11.8102183,1.87723117 9.99646832,1.02350892 L9.99646832,1.02350892 C8.62109624,0.44754027 6.90451931,0.0478885503 4.85860937,0.00565955594 L4.85860937,0.00565955594 C4.73065755,0.000870700914 4.60666301,0 4.48003028,0 L4.48003028,0 C4.45408816,0 4.42770635,0 4.40176423,0" id="path-12"></path>
        <linearGradient x1="38.9724234%" y1="48.7335928%" x2="124.034239%" y2="52.0579089%" id="linearGradient-14">
            <stop stop-color="#FFFFFF" offset="0%"></stop>
            <stop stop-color="#C8CACA" offset="100%"></stop>
        </linearGradient>
        <polygon id="path-15" points="0 0 8.76228098 0 8.76228098 10.0129716 0 10.0129716"></polygon>
        <polygon id="path-17" points="0 43 126 43 126 0 0 0"></polygon>
    </defs>
    <g id="登录" stroke="none" stroke-width="1" fill="none" fill-rule="evenodd">
        <g id="登录页面" transform="translate(-32.000000, -32.000000)">
            <g id="Group-48" transform="translate(32.000000, 32.000000)">
                <g id="Group-3" transform="translate(53.470113, 9.906400)">
                    <mask id="mask-2" fill="white">
                        <use xlink:href="#path-1"></use>
                    </mask>
                    <g id="Clip-2"></g>
                    <path d="M16.2627464,19.8776665 C19.6312648,19.8898563 24.5387225,19.4013931 29.4373863,17.077057 L29.4373863,17.077057 C28.5491985,16.2977797 27.6698045,15.5185024 26.8036015,14.7479321 L26.8036015,14.7479321 C12.1234392,17.8380496 5.84016966,12.9756204 4.31266243,8.11232042 L4.31266243,8.11232042 C3.02522974,4.01436657 5.11466968,-0.0835872878 8.40228384,0.577274706 L8.40228384,0.577274706 C8.38469596,0.568567697 8.36271111,0.564214192 8.34512323,0.555507183 L8.34512323,0.555507183 C7.39845568,0.174140183 6.51510449,0 5.70254452,0 L5.70254452,0 C-2.95508859,0.00174140183 -3.45018736,19.8058337 16.2627464,19.8776665" id="Fill-1" fill="url(#linearGradient-3)" mask="url(#mask-2)"></path>
                </g>
                <g id="Group-6" transform="translate(89.129300, 14.827699)">
                    <mask id="mask-5" fill="white">
                        <use xlink:href="#path-4"></use>
                    </mask>
                    <g id="Clip-5"></g>
                    <path d="M0,5.87800458 C25.2645475,-8.70275293 37.6886248,7.41958055 36.8290172,15.7386924 C36.2204766,21.6268074 29.6839416,23.931988 14.593542,17.8806167 C34.8679688,24.389106 32.9961788,-3.26087222 2.17210297,8.38126971 C1.42901511,7.58457837 0.707912102,6.74870549 0,5.87800458" id="Fill-4" fill="#E2E3E3" mask="url(#mask-5)"></path>
                </g>
                <g id="Group-9" transform="translate(53.861119, 0.000000)">
                    <mask id="mask-7" fill="white">
                        <use xlink:href="#path-6"></use>
                    </mask>
                    <g id="Clip-8"></g>
                    <path d="M8.63388947,0 C5.88182621,0.00348280366 3.08227568,0.782760122 0.0910172703,2.30518067 L0.0910172703,2.30518067 C0.743087859,1.97823248 1.45187936,1.75968655 2.21607267,1.6678276 L2.21607267,1.6678276 C21.7210297,-0.661297344 35.1405809,40.9799739 60.7177529,40.9799739 L60.7177529,40.9799739 C67.3132073,40.9799739 71.6266345,35.3421855 72.0751254,30.9016108 L72.0751254,30.9016108 C72.0839193,30.7884197 72.0971102,30.6752286 72.0971102,30.5663909 L72.0971102,30.5663909 C71.6002527,35.6643448 64.9520346,38.7596865 49.861635,32.7083152 L49.861635,32.7083152 C45.4338867,30.4836744 41.2391777,27.32303 37.440196,23.2089682 L37.440196,23.2089682 C36.6971081,22.4122769 35.9760051,21.576404 35.268093,20.7057031 L35.268093,20.7057031 C35.0570385,20.4444928 34.8459839,20.178929 34.6349294,19.9090118 L34.6349294,19.9090118 C24.0734085,6.39791032 16.5651432,0.0134958642 8.67829886,0 L8.67829886,0 L8.63388947,0 Z M8.32667268e-17,2.35132782 C0.0307787871,2.3356552 0.0606781802,2.32041794 0.0910172703,2.30518067 L0.0910172703,2.30518067 C0.0606781802,2.32041794 0.0303390901,2.3356552 8.32667268e-17,2.35132782 L8.32667268e-17,2.35132782 Z" id="Fill-7" fill="url(#linearGradient-8)" mask="url(#mask-7)"></path>
                </g>
                <g id="Group-12" transform="translate(49.187403, 1.573792)">
                    <mask id="mask-10" fill="white">
                        <use xlink:href="#path-9"></use>
                    </mask>
                    <g id="Clip-11"></g>
                    <path d="M6.88978858,0.0940356987 C6.08997982,0.189812799 5.35084923,0.424902046 4.67371591,0.777535916 L4.67371591,0.777535916 C-3.62776265,5.10927296 -2.33373451,28.8154114 20.6166879,28.2102743 L20.6166879,28.2102743 C-0.923626363,27.2263822 1.82447963,4.68262952 12.6278339,8.88811493 L12.6278339,8.88811493 C12.6454218,8.89682194 12.6674066,8.90117545 12.6849945,8.90988246 L12.6849945,8.90988246 C17.7107307,10.890727 24.0599548,16.8202003 31.0863122,23.0805398 L31.0863122,23.0805398 C31.9525152,23.8511101 32.8319091,24.6303875 33.720097,25.4096648 L33.720097,25.4096648 C42.971321,33.5115368 53.2074661,41.4262081 63.0351329,41.4262081 L63.0351329,41.4262081 C70.9316505,41.4262081 76.2480264,36.0801045 76.7488413,29.3278189 L76.7488413,29.3278189 C76.3003504,33.7683936 71.9869232,39.406182 65.3914689,39.406182 L65.3914689,39.406182 C40.509018,39.406182 27.1351953,-0.00348280366 8.46874036,0 L8.46874036,0 C7.94725977,0 7.41962342,0.0309098825 6.88978858,0.0940356987" id="Fill-10" fill="url(#linearGradient-11)" mask="url(#mask-10)"></path>
                </g>
                <path d="M120.02487,10.0565956 C123.715247,11.6033957 124.959589,14.4462342 123.576742,15.3117109 C121.669337,16.5023944 118.968278,14.8506748 114.292541,13.2159338 C111.283255,12.1636918 107.992563,12.2581628 105.696905,12.5585546 C105.060664,12.6390945 104.766067,11.796256 105.324921,11.4814976 C107.286849,10.3678711 110.36121,9.08881149 114.219111,9.03526339 C111.390981,9.1406182 108.085339,11.1014367 111.445943,11.3321724 C113.878786,11.5015237 116.13619,12.1462778 117.928395,12.7296474 C117.934111,12.7296474 117.934111,12.7353069 117.939827,12.7348716 C119.870976,13.3582934 121.262177,13.9111885 121.762552,13.7004789 C121.981522,13.6073139 122.136295,13.4771441 122.238744,13.3151937 C122.772536,12.4923814 121.83862,10.9103178 120.02487,10.0565956" id="Fill-13" fill="#D9D9D9"></path>
                <g id="Group-17" transform="translate(110.028490, 9.033087)">
                    <mask id="mask-13" fill="white">
                        <use xlink:href="#path-12"></use>
                    </mask>
                    <g id="Clip-16"></g>
                    <path d="M4.40176423,0 C4.36702817,0.00130605137 4.33141271,0.00130605137 4.29579726,0.00130605137 L4.29579726,0.00130605137 C4.26018181,0.00130605137 4.22456635,0.00130605137 4.19070969,0.00217675229 L4.19070969,0.00217675229 C1.36257885,0.107966913 -1.94306288,2.06835002 1.41754097,2.29908576 L1.41754097,2.29908576 C3.85038424,2.46843709 6.10778842,3.11362647 7.89999322,3.69699608 L7.89999322,3.69699608 C4.1748806,2.29212016 13.0400507,2.53243361 12.2099028,4.2821071 L12.2099028,4.2821071 C12.7441346,3.45929473 11.8102183,1.87723117 9.99646832,1.02350892 L9.99646832,1.02350892 C8.62109624,0.44754027 6.90451931,0.0478885503 4.85860937,0.00565955594 L4.85860937,0.00565955594 C4.73065755,0.000870700914 4.60666301,0 4.48003028,0 L4.48003028,0 C4.45408816,0 4.42770635,0 4.40176423,0" id="Fill-15" fill="url(#linearGradient-14)" mask="url(#mask-13)"></path>
                </g>
                <g id="Group-47">
                    <path d="M24.9832294,42.9972138 L27.0388127,42.9972138 L27.0374936,38.197475 C27.0366142,36.3681323 25.2532033,34.8853287 23.4055967,34.8853287 C22.3327361,34.8853287 21.508744,35.1195472 20.9019622,35.6040923 L18.846379,34.8853287 L18.846379,42.9972138 L20.9019622,42.9972138 L20.9019622,38.993731 C20.9019622,37.6467566 22.1216816,36.9210274 22.9425958,36.9210274 C23.9688485,36.9210274 24.9832294,37.7447105 24.9832294,38.7608185 L24.9832294,38.8365694 L24.9832294,42.9972138 Z" id="Fill-18" fill="#FFFFFF"></path>
                    <polygon id="Fill-20" fill="#FFFFFF" points="33.7200959 34.8854593 31.6794623 40.4261646 29.6388287 34.8854593 27.5832455 34.8854593 30.5705466 42.9973444 30.7323551 42.9973444 32.6265696 42.9973444 32.788378 42.9973444 35.7756792 34.8854593"></polygon>
                    <g id="Group-24" transform="translate(37.102729, 32.987028)">
                        <mask id="mask-16" fill="white">
                            <use xlink:href="#path-15"></use>
                        </mask>
                        <g id="Clip-23"></g>
                        <path d="M3.8442705,7.85446053 C2.67907357,7.41257982 1.95357358,6.2519355 1.95357358,5.0164109 L1.95357358,5.00639784 L1.95357358,4.99638478 C1.95357358,3.76129553 2.67907357,2.60021586 3.8442705,2.15833515 C5.38760683,1.57322414 6.87202376,2.16617146 7.63577737,3.28197468 L8.76228098,1.60021586 C7.44231071,0.192727837 5.31417744,-0.46116855 3.10865749,0.360773113 C1.20520936,1.07039436 0,2.94283667 0,4.95676789 L0,5.00639784 L0,5.05602779 C0,7.07039436 1.20520936,8.94240132 3.10865749,9.65202257 C5.31417744,10.4743996 7.44187102,9.82006785 8.76228098,8.41301517 L8.76228098,8.41257982 L7.63577737,6.730821 C6.87202376,7.84662422 5.38760683,8.4400069 3.8442705,7.85446053" id="Fill-22" fill="#FFFFFF" mask="url(#mask-16)"></path>
                    </g>
                    <path d="M68.6227568,34.8854593 L66.7206277,34.8854593 C66.6779771,34.8854593 66.6436808,34.9194166 66.6436808,34.9612103 L66.6436808,39.0461036 C66.6436808,40.1040052 65.6244632,40.9616456 64.6030472,40.9616456 C63.5816311,40.9616456 62.5624136,40.1040052 62.5624136,39.0461036 L62.5624136,34.9612103 C62.5624136,34.9194166 62.5281172,34.8854593 62.4859063,34.8854593 L60.5833376,34.8854593 C60.5411267,34.8854593 60.5068303,34.9194166 60.5068303,34.9612103 L60.5081494,38.9437963 C60.5090288,41.1828037 62.3421254,42.9973444 64.6030472,42.9973444 C66.8644086,42.9973444 68.6975052,41.1828037 68.6979449,38.9437963 L68.699264,34.9612103 C68.699264,34.9194166 68.6649677,34.8854593 68.6227568,34.8854593" id="Fill-25" fill="#FFFFFF"></path>
                    <path d="M55.1633691,40.9617762 C54.0364258,40.9617762 53.1227355,40.057118 53.1227355,38.9413148 C53.1227355,37.8255115 54.0364258,36.9208533 55.1633691,36.9208533 C56.2903124,36.9208533 57.2040026,37.8255115 57.2040026,38.9413148 C57.2040026,40.057118 56.2903124,40.9617762 55.1633691,40.9617762 M55.1633691,34.8855899 C52.9011282,34.8855899 51.0671522,36.7014367 51.0671522,38.9413148 C51.0671522,41.1811929 52.9011282,42.9970396 55.1633691,42.9970396 C57.4256099,42.9970396 59.2595859,41.1811929 59.2595859,38.9413148 C59.2595859,36.7014367 57.4256099,34.8855899 55.1633691,34.8855899" id="Fill-27" fill="#FFFFFF"></path>
                    <mask id="mask-18" fill="white">
                        <use xlink:href="#path-17"></use>
                    </mask>
                    <g id="Clip-30"></g>
                    <polygon id="Fill-29" fill="#FFFFFF" mask="url(#mask-18)" points="47.5290427 42.9973879 49.580229 42.9973879 49.580229 32.4388333 47.5290427 32.4388333"></polygon>
                    <path d="M13.5028298,34.8854593 C8.39047323,34.8854593 9.18324685,42.0543753 4.51410485,40.8184153 C3.16907186,40.462734 2.24878612,39.2293862 2.24878612,37.8506313 L2.24878612,37.8458424 C2.24878612,36.1379626 3.65054002,34.5498041 5.3737124,34.4718764 C6.56704995,34.4174576 7.62803871,34.995603 8.24405415,35.8959077 L9.43255502,34.1209839 C8.33111414,32.9468437 6.69632085,32.2694384 4.90939242,32.4666522 C2.64495308,32.7169787 0.473289806,34.8684806 0.222222843,37.1105355 C-0.135250784,40.2986069 2.37541885,42.9973444 5.52320937,42.9973444 C10.9525874,42.9973444 10.8839947,36.6921637 13.651887,36.9272529 C14.5343588,37.0021332 15.4185894,37.8131911 15.5271946,38.6834567 C15.6810885,39.9146278 14.715514,40.9616456 13.5028298,40.9616456 C12.4493159,40.9616456 11.5822335,40.1714845 11.4736283,39.1566826 L10.1492611,41.2542011 C11.0317329,42.5084458 12.6023304,43.251589 14.3277013,42.9168045 C15.9391906,42.6042229 17.227063,41.3160209 17.5264966,39.7178494 C18.0097236,37.1366565 16.0218536,34.8854593 13.5028298,34.8854593" id="Fill-31" fill="#FFFFFF" mask="url(#mask-18)"></path>
                    <path d="M76.9780103,33.678929 L76.9780103,32.449064 L76.0775109,32.449064 L76.0770712,38.9414454 C76.0770712,38.9414454 76.0775109,38.9440575 76.0775109,38.9453635 C76.0775109,40.060296 75.1647,40.9636482 74.0386361,40.9636482 C72.9130119,40.9636482 72.000201,40.060296 72.000201,38.9453635 C72.000201,37.830431 72.9130119,36.9270788 74.0386361,36.9270788 C74.7302794,36.9270788 75.3392597,37.2696996 75.7077258,37.7912495 L75.7077258,35.2518502 C75.1972376,35.0250327 74.6344255,34.8935568 74.0386361,34.8935568 C71.7785937,34.8935568 69.9463765,36.7076622 69.9463765,38.9453635 C69.9463765,41.1830649 71.7785937,42.9971702 74.0386361,42.9971702 C74.7812843,42.9971702 75.4768849,42.8003918 76.0775109,42.4582064 L76.0775109,42.9971702 L78.1308957,42.9971702 L78.1308957,33.678929 L76.9780103,33.678929 Z" id="Fill-32" fill="#FFFFFF" mask="url(#mask-18)"></path>
                    <polygon id="Fill-33" fill="#FFFFFF" mask="url(#mask-18)" points="77.4420664 33.2916848 78.8640464 33.2916848 78.8640464 31.8837614 77.4420664 31.8837614"></polygon>
                    <polygon id="Fill-34" fill="#FFFFFF" mask="url(#mask-18)" points="78.504814 31.0674793 79.1595228 31.0674793 79.1595228 30.4192425 78.504814 30.4192425"></polygon>
                    <polygon id="Fill-35" fill="#FFFFFF" mask="url(#mask-18)" points="79.341997 32.4440575 80.1070697 32.4440575 80.1070697 31.6865477 79.341997 31.6865477"></polygon>
                    <polygon id="Fill-36" fill="#FFFFFF" mask="url(#mask-18)" points="20.6011216 23.8228124 26.7494041 23.8228124 26.7494041 22.7244232 20.6011216 22.7244232"></polygon>
                    <path d="M20.7308761,29.9216369 C20.4125356,29.9212016 20.1320089,29.7239878 20.0278007,29.4166304 C19.9473362,29.1780583 20.0132907,28.9138006 20.1671846,28.7139747 L22.0899794,26.3865912 L19.8870977,26.3865912 L19.8870977,25.288202 L27.4639557,25.288202 L27.4639557,26.3865912 L23.4855776,26.3865912 L21.6999682,28.5463648 C21.6133479,28.6595559 21.6946919,28.822377 21.8384728,28.822377 L25.4804827,28.822377 C25.755733,28.822377 25.7715621,28.6116674 25.6620775,28.4592947 C25.4580581,28.1754462 24.8855727,27.296909 24.8855727,27.296909 L26.2596257,27.2977797 C26.2596257,27.2977797 26.9965578,28.3543753 27.2555393,28.7170222 C27.4028378,28.922943 27.4771466,29.1824118 27.396682,29.4218546 C27.2933532,29.7300827 27.0115075,29.9272965 26.6931669,29.9272965 L20.7308761,29.9216369 Z" id="Fill-37" fill="#FFFFFF" mask="url(#mask-18)"></path>
                    <path d="M36.5829188,26.8882891 L36.5829188,22.1050936 L35.4735634,22.1050936 L35.4735634,26.8882891 L32.7395277,26.8882891 L32.1446177,26.1042229 L32.7527186,26.1042229 L32.7527186,25.0058337 L31.5655368,25.0058337 L31.5655368,23.7759687 C31.8966286,23.70936 32.1032862,23.6349151 32.3455592,23.5474097 L32.4761492,23.5008272 L32.4686744,22.1050936 L32.1872683,22.2417936 C30.7380272,22.946626 29.4760969,23.1111885 29.4637854,23.1129299 L29.2923036,23.1342621 L29.2901051,23.8047018 L29.2914242,24.0158468 L29.5591996,23.9953853 C29.6959454,23.987549 30.1554287,23.9692643 30.4561814,23.9383544 L30.4561814,25.0058337 L28.9853951,25.0058337 L28.9853951,26.1042229 L29.6150411,26.1042229 L28.9853951,27.0188942 L28.9853951,28.878276 L30.4561814,26.8717458 L30.4561814,30.0589465 L31.5655368,30.0589465 L31.5655368,27.0637353 L32.1468162,27.9866783 L35.4735634,27.9866783 L35.4735634,30.0589465 L36.5829188,30.0589465 L36.5829188,27.9866783 L37.3493106,27.9866783 L37.3493106,26.8882891 L36.5829188,26.8882891 Z" id="Fill-38" fill="#FFFFFF" mask="url(#mask-18)"></path>
                    <path d="M35.1001727,23.1865041 C34.3935797,23.004963 33.7331549,22.7115368 33.1360464,22.3297344 L33.1360464,23.6862865 C33.7485443,24.0027862 34.4067706,24.2448411 35.1001727,24.3946017 L35.1001727,23.1865041 Z" id="Fill-39" fill="#FFFFFF" mask="url(#mask-18)"></path>
                    <path d="M35.1001727,25.2513278 C34.3935797,25.0697867 33.7331549,24.7763605 33.1360464,24.3945581 L33.1360464,25.7511101 C33.7485443,26.0676099 34.4067706,26.3096648 35.1001727,26.4594253 L35.1001727,25.2513278 Z" id="Fill-40" fill="#FFFFFF" mask="url(#mask-18)"></path>
                    <path d="M17.0438413,25.0259034 C17.0438413,25.1595559 16.9343567,25.2683936 16.7993698,25.2683936 L15.3202292,25.2683936 L15.3202292,23.5639965 L17.0438413,23.5639965 L17.0438413,25.0259034 Z M18.1531967,25.3602525 L18.1531967,22.4656073 L14.2108738,22.4656073 L14.2108738,26.3663474 L17.137057,26.3663474 C17.697231,26.3663474 18.1531967,25.914889 18.1531967,25.3602525 L18.1531967,25.3602525 Z" id="Fill-41" fill="#FFFFFF" mask="url(#mask-18)"></path>
                    <path d="M13.9691724,28.8781019 L13.9691724,27.0187201 L13.3395263,26.1040488 L13.9691724,26.1040488 L13.9691724,25.0060949 L12.4768409,25.0060949 L12.4768409,23.7757945 C12.8079327,23.7096212 13.0145903,23.634741 13.2568633,23.5476709 L13.3874533,23.500653 L13.3799784,22.1053548 L13.0985724,22.2420549 C11.6493312,22.9464519 10.3874009,23.1114497 10.3750894,23.1127558 L10.2036076,23.1345233 L10.2014091,23.8045276 L10.2027282,24.0156726 L10.4705037,23.9956465 C10.6072494,23.9878102 11.0667327,23.9695255 11.3674855,23.9386156 L11.3674855,25.0060949 L9.89669913,25.0060949 L9.89669913,26.1040488 L10.5263452,26.1040488 L9.89669913,27.0187201 L9.89669913,28.8781019 L11.3674855,26.872007 L11.3674855,30.0587723 L12.4768409,30.0587723 L12.4768409,26.8428385 L13.9691724,28.8781019 Z" id="Fill-42" fill="#FFFFFF" mask="url(#mask-18)"></path>
                    <path d="M17.7604594,27.6440139 C17.6751582,27.3693078 17.4166164,27.1816717 17.1237782,27.1816717 C16.9118442,27.1816717 16.7126615,27.2804963 16.5873479,27.4485416 L14.8844016,29.7271659 L15.9264834,27.1816717 L14.7687613,27.1816717 L13.7425086,30.0589029 L14.8795649,30.0589029 L16.5319461,27.9413583 C16.6110915,27.8394863 16.7746588,27.8682194 16.8133521,27.9909882 L17.4636639,30.0589029 L18.5119015,30.0589029 L17.7604594,27.6440139 Z" id="Fill-43" fill="#FFFFFF" mask="url(#mask-18)"></path>
                    <path d="M41.91785,25.2596865 C41.91785,25.2596865 41.3515203,25.7903788 41.1022121,25.9192425 L41.1022121,24.6036134 L41.9675357,24.6036134 L41.9675357,23.5060949 L41.1022121,23.5060949 L41.1022121,22.1051371 L39.9937361,22.1051371 L39.9937361,23.5060949 L38.6667306,23.5060949 L38.6667306,24.6036134 L39.9937361,24.6036134 L39.9937361,26.5139312 C39.3487006,26.8800609 38.6667306,27.0333043 38.6667306,27.0333043 L38.6667306,27.8308663 C38.6667306,27.8308663 39.3377082,27.7572921 39.9937361,27.4573357 L39.9937361,28.8717893 L38.8390919,28.6297344 L38.8390919,29.7089682 L40.0763991,30.0411406 C40.1335597,30.0528951 40.1915997,30.05899 40.2496397,30.05899 C40.4743248,30.05899 40.6871382,29.9723552 40.8485069,29.8147584 C41.0120742,29.6549848 41.1022121,29.441663 41.1022121,29.2135394 L41.1022121,27.1286461 C41.5014569,26.9845451 41.91785,26.7102743 41.91785,26.7102743 L41.91785,25.2596865 Z" id="Fill-44" fill="#FFFFFF" mask="url(#mask-18)"></path>
                    <path d="M46.6779652,24.6056596 L46.6779652,23.5081411 L44.9073056,23.5081411 L44.9073056,22.1050065 L43.7988296,22.1050065 L43.7988296,23.5081411 L42.184702,23.5081411 L42.184702,24.6056596 L43.7988296,24.6056596 L43.7988296,25.3248585 L42.2968248,25.3248585 C42.2968248,25.3248585 42.3865229,25.9848498 42.5632811,26.422377 L45.1086868,26.4249891 C44.9077453,26.9487157 44.6478844,27.388855 44.3273453,27.7558555 C44.1316802,27.4968219 43.9579999,27.2033957 43.7957517,26.863387 L42.6833184,26.863387 C42.9181166,27.4611232 43.2100753,27.9748367 43.5706268,28.4101872 C43.1340078,28.6927296 42.6230799,28.8951676 42.0272905,29.0205485 L41.8056833,29.0662603 L41.8056833,30.0279495 L42.1306193,29.9648237 C42.9466969,29.8059208 43.6651617,29.5046582 44.274142,29.0771441 C44.8307983,29.498128 45.5066126,29.8002612 46.3530292,29.9648237 L46.6779652,30.0279495 L46.6779652,29.0662603 L46.4567977,29.0205485 C45.8552922,28.8942969 45.392731,28.6957771 45.0106344,28.4254245 C45.6143383,27.7854593 46.060191,26.9835438 46.3055419,26.024902 C46.3451147,25.8677405 46.3222504,25.7001306 46.243105,25.5647366 C46.1542862,25.4145407 46.0061083,25.3248585 45.8460586,25.3248585 L44.9073056,25.3248585 L44.9073056,24.6056596 L46.6779652,24.6056596 Z" id="Fill-45" fill="#FFFFFF" mask="url(#mask-18)"></path>
                    <path d="M8.55228171,28.8781019 L8.55228171,27.5629081 C7.89493476,27.1262516 7.28859266,26.5267741 6.73677297,25.8950805 L8.36409142,25.8950805 L8.36409142,24.8193296 L5.85518057,24.8193296 L5.44406392,24.8193296 L4.80562393,24.8193296 C4.68646606,24.8193296 4.61391606,24.9521114 4.68206909,25.0491946 C4.94984454,25.4327384 5.23828574,25.8145407 5.54343543,26.1867653 C5.41372483,26.1332172 5.27170271,26.1031781 5.12220574,26.1031781 L4.20807577,26.1031781 C3.70638154,26.1031781 3.23986307,26.2516326 2.84897247,26.5054419 C3.51071639,25.771441 4.09639274,24.9629952 4.58181818,24.0822812 L5.44406392,24.0822812 L6.5305551,24.0822812 L7.48249901,24.0822812 L7.48249901,23.0060949 L6.95530236,23.0060949 L7.21120599,22.3574227 L5.98752936,22.4810623 L5.80901239,23.0060949 L5.10901483,23.0060949 C5.23784604,22.7104919 5.36228028,22.4122769 5.47000604,22.1053548 L4.3188794,22.1053548 C4.19840243,22.4127122 4.06385517,22.7122333 3.92051396,23.0060949 L3.0613461,23.0060949 L2.88326883,22.4810623 L1.6595922,22.3574227 L1.91549583,23.0060949 L1.09150373,23.0060949 L1.09150373,24.0822812 L2.33980339,24.0822812 L3.31768943,24.0822812 C3.15983822,24.3347845 2.99363277,24.5803222 2.81819368,24.8193296 L0.238931327,24.8193296 L0.238931327,25.8950805 L1.93484249,25.8950805 C1.35048524,26.5215498 0.702371921,27.0818459 0.000175878783,27.5629081 L0.000175878783,28.8781019 C0.753816465,28.4222899 1.45161554,27.8781019 2.09621128,27.2734001 C1.8622925,27.6482368 1.72510705,28.0883761 1.72510705,28.5616021 L1.72510705,29.1972138 C1.72510705,29.6730518 2.11467855,30.0587723 2.59526733,30.0587723 L7.21780145,30.0587723 L7.21780145,28.7474967 C7.21780145,28.7474967 6.70071782,28.9608185 6.58419813,28.9608185 L3.1193861,28.9608185 C3.02485125,28.9608185 2.94834398,28.8846321 2.94834398,28.7910318 L2.94834398,28.3452329 C2.94834398,27.7135394 3.46542761,27.2011319 4.10386759,27.2011319 L4.75813666,27.2011319 C4.93137726,27.2011319 5.07164059,27.3400087 5.07208029,27.5115368 L5.07339938,27.9133653 L4.91774666,28.3138877 L6.22012905,28.3121463 L6.22232753,27.195037 C6.22276723,27.0966478 6.20561905,27.0030475 6.18099602,26.9124946 C6.89594327,27.6808881 7.68915658,28.3713539 8.55228171,28.8781019" id="Fill-46" fill="#FFFFFF" mask="url(#mask-18)"></path>
                </g>
            </g>
        </g>
    </g>
</svg>